<svg width="97" height="79" viewBox="0 0 97 79" fill="none" xmlns="http://www.w3.org/2000/svg">
<path d="M23.7806 79C19.1914 79 15.4366 78.0595 12.5161 76.1786C9.5957 74.2976 7.19677 71.8942 5.31936 68.9682C3.23333 65.4153 1.77312 61.7579 0.938709 57.996C0.312903 54.0251 0 50.7857 0 48.2778C0 38.037 2.60753 28.7368 7.82258 20.377C13.0376 12.0172 21.1731 5.22487 32.229 0L35.0452 5.64285C28.5785 8.35979 22.9462 12.6442 18.1484 18.496C13.5591 24.3479 11.2645 30.3042 11.2645 36.3651C11.2645 38.873 11.5774 41.0675 12.2032 42.9484C15.5409 40.2315 19.4 38.873 23.7806 38.873C29.2043 38.873 33.8979 40.6495 37.8613 44.2024C41.8247 47.7553 43.8065 52.6667 43.8065 58.9365C43.8065 64.7884 41.8247 69.5952 37.8613 73.3571C33.8979 77.119 29.2043 79 23.7806 79ZM76.9742 79C72.3849 79 68.6301 78.0595 65.7097 76.1786C62.7893 74.2976 60.3903 71.8942 58.5129 68.9682C56.4269 65.4153 54.9667 61.7579 54.1323 57.996C53.5065 54.0251 53.1936 50.7857 53.1936 48.2778C53.1936 38.037 55.8011 28.7368 61.0161 20.377C66.2312 12.0172 74.3667 5.22487 85.4226 0L88.2387 5.64285C81.772 8.35979 76.1398 12.6442 71.3419 18.496C66.7527 24.3479 64.4581 30.3042 64.4581 36.3651C64.4581 38.873 64.771 41.0675 65.3968 42.9484C68.7344 40.2315 72.5935 38.873 76.9742 38.873C82.3979 38.873 87.0914 40.6495 91.0548 44.2024C95.0183 47.7553 97 52.6667 97 58.9365C97 64.7884 95.0183 69.5952 91.0548 73.3571C87.0914 77.119 82.3979 79 76.9742 79Z" fill="#BFBFBF"/>
</svg>
