<svg width="338" height="125" viewBox="0 0 338 125" fill="none" xmlns="http://www.w3.org/2000/svg">
<path d="M279.09 124.258C266.478 124.258 254.161 119.845 244.013 111.649L242.84 110.703L244.6 108.245L245.773 109.19C256.331 117.764 269.411 121.925 282.668 121.042C287.536 120.727 292.287 119.718 296.863 118.016L298.212 117.512L299.15 120.475L297.801 120.979C292.991 122.745 288.005 123.816 282.844 124.131C281.612 124.194 280.321 124.258 279.031 124.258H279.09Z" fill="white"/>
<path d="M313.052 112.595L311.292 110.136L312.465 109.19C327.364 97.0861 335.517 77.858 334.286 57.8734C332.643 30.9541 314.342 8.57384 289.707 3.40432L288.299 3.0891L288.885 0L290.293 0.315215C316.161 5.73691 335.459 29.315 337.16 57.6843C338.45 78.7406 329.828 98.9144 314.166 111.649L312.993 112.595H313.052Z" fill="white"/>
<path d="M242.018 18.1564L240.023 15.8869L241.079 14.8152C245.889 9.96085 254.042 4.72829 260.553 2.3957L261.902 1.89136L262.841 4.85438L261.492 5.35872C255.45 7.50218 247.59 12.6087 243.074 17.0847L242.018 18.1564Z" fill="white"/>
<path d="M279.032 116.566C275.688 116.566 272.403 116.188 269.119 115.558L267.711 115.242L268.298 112.216L269.705 112.531C273.811 113.414 277.976 113.666 282.199 113.414C290.939 112.784 298.916 109.884 305.955 104.714L307.128 103.832L308.771 106.416L307.597 107.299C300.148 112.784 291.643 115.873 282.375 116.503C281.261 116.566 280.146 116.629 279.032 116.629V116.566Z" fill="white"/>
<path d="M320.029 94.5014L317.683 92.7362L318.504 91.4753C324.781 81.8928 327.889 70.1038 327.127 58.3778C326.482 48.0388 323.08 38.2041 317.155 30.0715L316.275 28.8737L318.563 26.9824L319.443 28.1802C325.66 36.8171 329.356 47.2192 330.001 58.1887C330.764 70.6712 327.479 83.0906 320.851 93.3036L320.029 94.5645V94.5014Z" fill="white"/>
<path d="M246.652 23.4521L244.775 21.1195L245.89 20.1108C254.336 12.2935 264.66 7.75437 275.805 6.99786C288.533 6.11526 300.968 10.2761 310.94 18.8499L312.055 19.7956L310.236 22.2543L309.122 21.3086C299.737 13.2391 287.947 9.2674 275.981 10.15C265.481 10.9065 255.686 15.1934 247.767 22.5064L246.652 23.5151V23.4521Z" fill="white"/>
<path d="M0 31.5847H12.0246C15.72 31.5847 18.4182 32.0891 20.6471 33.7912C22.9347 35.4934 24.4598 38.2042 24.4598 41.7977C24.4598 45.3911 22.7001 48.4172 19.7673 49.8672V49.9933C23.6973 51.3172 25.8676 54.6584 25.8676 59.0084C25.8676 63.3584 24.2838 65.754 21.8789 67.6453C19.4153 69.5366 16.5412 70.23 12.7285 70.23H0V31.6478V31.5847ZM12.7285 47.8498C15.8959 47.8498 18.1835 45.8955 18.1835 42.6803C18.1835 39.4651 17.3624 39.402 16.2479 38.5194C15.0747 37.6999 13.7843 37.3847 11.5554 37.3847H6.2176V47.8498H12.7285ZM17.3624 63.1692C18.6528 62.2866 19.5326 60.7736 19.5326 58.6301C19.5326 55.0367 16.9518 53.0193 13.491 53.0193H6.2176V64.304H12.2592C14.6055 64.304 16.0133 63.9888 17.3037 63.1062H17.3624V63.1692Z" fill="white"/>
<path d="M30.6777 43.8782H36.6607V47.5347H36.778C38.4791 45.013 41.0013 43.563 43.9341 43.563C46.867 43.563 44.9899 43.563 45.5179 43.7521V49.9303C44.9313 49.8042 44.2861 49.6782 43.6408 49.6782C40.6494 49.6782 38.4204 51.0021 36.7194 53.5868V70.1671H30.7364V43.8152L30.6777 43.8782Z" fill="white"/>
<path d="M47.043 57.0544C47.043 49.3001 52.674 43.311 60.2994 43.311C67.9247 43.311 73.5558 49.3001 73.5558 57.0544C73.5558 64.8087 67.9247 70.7978 60.2994 70.7978C52.674 70.7978 47.043 64.7456 47.043 57.0544ZM67.5141 57.0544C67.5141 52.5153 64.4053 48.9219 60.2994 48.9219C56.1934 48.9219 53.0846 52.5153 53.0846 57.0544C53.0846 61.5935 56.1347 65.1239 60.2994 65.1239C64.464 65.1239 67.5141 61.5935 67.5141 57.0544Z" fill="white"/>
<path d="M77.9551 29.4414H83.9381V55.9194H84.0554L94.0856 43.8152H101.242L90.6836 56.4238L101.652 70.1671H94.3789L84.114 57.0542H83.9967V70.1671H78.0137V29.4414H77.9551Z" fill="white"/>
<path d="M115.202 70.7978C107.283 70.7978 101.652 65.4391 101.652 57.1174C101.652 48.7958 107.283 43.311 114.029 43.311C120.774 43.311 125.467 47.598 125.467 56.2979C125.467 64.9978 125.467 58.2522 125.35 58.8826H107.694C108.398 63.2326 111.624 65.4391 115.847 65.4391C120.071 65.4391 121.713 64.3043 124.176 62.5391V68.4021C121.889 69.9152 118.369 70.7978 115.202 70.7978ZM119.953 54.3435C119.543 50.1197 116.786 48.4806 114.029 48.4806C111.272 48.4806 108.398 50.4349 107.753 54.3435H119.953Z" fill="white"/>
<path d="M130.393 43.8784H136.317V46.5262H136.434C138.429 44.698 141.185 43.311 144.47 43.311C147.755 43.311 149.28 44.1936 150.864 46.0219C152.389 47.8501 152.975 50.1827 152.975 53.7131V70.2304H146.992V54.4696C146.992 52.5784 146.758 51.1914 145.878 50.3088C144.998 49.4262 143.825 48.9849 142.476 48.9849C140.188 48.9849 137.842 50.1827 136.317 51.8849V70.2304H130.334V43.8784H130.393Z" fill="white"/>
<path d="M180.778 64.7456C184.65 64.7456 187.113 62.9804 187.113 59.6391C187.113 56.2978 186.175 56.1717 183.77 55.0369C181.365 53.9022 176.79 53.0196 173.798 51.2544C170.748 49.4892 168.93 46.7153 168.93 42.3023C168.93 35.2415 173.798 31.0176 181.072 31.0176C188.345 31.0176 188.638 31.9632 191.63 33.7284V40.5371C188.11 38.0784 184.004 37.0067 181.13 37.0067C178.256 37.0067 175.206 38.6458 175.206 41.7349C175.206 44.824 176.32 45.2653 178.725 46.337C181.13 47.4087 185.823 48.2913 188.873 50.1826C191.923 52.0739 193.39 55.1 193.39 59.0717C193.39 66.4477 188.404 70.7977 180.954 70.7977C173.505 70.7977 172.742 69.6629 169.399 67.5825V60.5847C173.153 63.5477 177.846 64.7456 180.837 64.7456H180.778Z" fill="white"/>
<path d="M194.623 43.8783H198.964V37.1327L204.947 35.5566V43.8783H211.868V49.4261H204.947V60.5847C204.947 63.6738 206.12 65.2499 208.583 65.2499C211.047 65.2499 210.988 64.8716 211.927 64.4303V69.789C210.812 70.3563 208.935 70.7976 207.058 70.7976C201.603 70.7976 198.964 67.3303 198.964 61.2151V49.4261H194.623V43.8783Z" fill="white"/>
<path d="M216.09 43.8782H222.014V47.5347H222.131C223.833 45.013 226.355 43.563 229.288 43.563C232.22 43.563 230.343 43.563 230.871 43.7521V49.9303C230.285 49.8042 229.64 49.6782 228.994 49.6782C226.003 49.6782 223.774 51.0021 222.073 53.5868V70.1671H216.09V43.8152V43.8782Z" fill="white"/>
<path d="M233.162 35.3045C233.162 33.098 234.863 31.3328 236.916 31.3328C238.969 31.3328 240.67 33.161 240.67 35.3045C240.67 37.4479 238.969 39.2762 236.916 39.2762C234.863 39.2762 233.162 37.511 233.162 35.3045ZM233.925 43.8783H239.908V70.2303H233.925V43.8783Z" fill="white"/>
<path d="M245.947 43.8784H251.872V46.5262H251.989C253.983 44.698 256.74 43.311 260.025 43.311C263.31 43.311 264.835 44.1936 266.418 46.0219C267.944 47.8501 268.53 50.1827 268.53 53.7131V70.2304H262.547V54.4696C262.547 52.5784 262.313 51.1914 261.433 50.3088C260.611 49.4262 259.38 48.9849 258.031 48.9849C255.743 48.9849 253.397 50.1827 251.872 51.8849V70.2304H245.889V43.8784H245.947Z" fill="white"/>
<path d="M283.722 76.9127C288.356 76.9127 290.996 74.1388 290.996 69.5997V67.9606H290.879C289.119 69.2215 286.89 69.978 284.485 69.978C278.15 69.978 272.988 64.8715 272.988 56.9912C272.988 49.1108 278.209 43.2478 285.834 43.2478C293.459 43.2478 290.82 44.0043 292.697 45.1391L297.037 43.9413V69.7889C297.037 77.8584 291.993 82.4605 284.192 82.4605C276.39 82.4605 277.915 81.5779 275.804 80.3801V74.391C277.974 75.9671 280.907 76.9127 283.722 76.9127ZM285.951 64.6194C287.887 64.6194 289.705 63.8628 290.996 62.7911V50.1195C289.705 49.363 287.946 48.7956 286.245 48.7956C281.611 48.7956 279.03 52.389 279.03 56.802C279.03 61.215 281.669 64.5563 285.951 64.5563V64.6194Z" fill="white"/>
<path d="M130.395 78.867H135.498C137.081 78.867 138.196 79.1192 139.134 79.8126C140.073 80.5692 140.777 81.7039 140.777 83.217C140.777 84.73 140.014 86.0539 138.782 86.6213C140.425 87.2517 141.363 88.6387 141.363 90.4669C141.363 92.2951 140.718 93.3038 139.662 94.1234C138.606 94.9429 137.375 95.1951 135.791 95.1951H130.395V78.804V78.867ZM135.791 85.8017C137.14 85.8017 138.079 84.9822 138.079 83.5952C138.079 82.2083 137.727 82.2083 137.257 81.83C136.729 81.4518 136.202 81.3257 135.263 81.3257H133.034V85.7387H135.791V85.8017ZM137.785 92.2951C138.313 91.9169 138.724 91.2865 138.724 90.3408C138.724 88.8278 137.609 87.9452 136.143 87.9452H133.093V92.7364H135.674C136.671 92.7364 137.257 92.6104 137.844 92.2321H137.785V92.2951Z" fill="white"/>
<path d="M144.473 78.8669H147.171V95.2581H144.473V78.8669Z" fill="white"/>
<path d="M150.047 87.0627C150.047 82.2715 153.449 78.615 157.907 78.615C162.365 78.615 165.767 82.2715 165.767 87.0627C165.767 91.854 162.365 95.5105 157.907 95.5105C153.449 95.5105 150.047 91.791 150.047 87.0627ZM163.069 87.0627C163.069 83.7845 160.898 81.1998 157.907 81.1998C154.915 81.1998 152.745 83.7845 152.745 87.0627C152.745 90.341 154.974 92.9257 157.907 92.9257C160.84 92.9257 163.069 90.341 163.069 87.0627Z" fill="white"/>
<path d="M172.976 92.9892C174.618 92.9892 175.674 92.2327 175.674 90.8458C175.674 89.4588 175.264 89.3958 174.266 88.8914C173.269 88.3871 171.334 88.0088 170.043 87.2523C168.753 86.4958 167.99 85.298 167.99 83.4697C167.99 80.4437 170.043 78.6785 173.152 78.6785C176.261 78.6785 176.378 79.1198 177.61 79.8132V82.7132C176.143 81.7045 174.384 81.2002 173.152 81.2002C171.92 81.2002 170.63 81.8937 170.63 83.2176C170.63 84.5415 171.099 84.7306 172.096 85.1719C173.152 85.6132 175.088 85.9914 176.378 86.811C177.669 87.6306 178.314 88.8914 178.314 90.5936C178.314 93.7457 176.202 95.574 173.035 95.574C169.867 95.574 169.515 95.0696 168.108 94.187V91.224C169.691 92.4849 171.686 92.9892 172.976 92.9892Z" fill="white"/>
<path d="M188.466 95.5105C183.715 95.5105 180.312 91.854 180.312 87.1258C180.312 82.3976 183.656 78.615 188.466 78.615C193.276 78.615 191.633 79.0563 192.806 79.7498V82.7128C191.633 81.8302 190.108 81.1998 188.524 81.1998C185.298 81.1998 183.011 83.7215 183.011 86.9997C183.011 90.2779 185.24 92.8627 188.642 92.8627C192.044 92.8627 191.751 92.2953 192.924 91.3497V94.2496C191.692 95.0692 190.049 95.4475 188.466 95.4475V95.5105Z" fill="white"/>
<path d="M196.088 78.8669H198.787V95.2581H196.088V78.8669Z" fill="white"/>
<path d="M202.482 78.8669H211.574V81.3887H205.122V85.5495H210.694V88.0082H205.122V92.6733H211.75V95.2581H202.424V78.8669H202.482Z" fill="white"/>
<path d="M214.744 78.8669H217.266L222.721 86.7473C223.66 88.0712 224.54 89.3951 225.478 90.7821V78.93H228.059V95.3211H225.537L220.082 87.4408C219.143 86.1169 218.205 84.793 217.325 83.406V95.3211H214.744V78.93V78.8669Z" fill="white"/>
<path d="M239.202 95.5105C234.451 95.5105 231.049 91.854 231.049 87.1258C231.049 82.3976 234.392 78.615 239.202 78.615C244.012 78.615 242.37 79.0563 243.543 79.7498V82.7128C242.37 81.8302 240.844 81.1998 239.261 81.1998C236.035 81.1998 233.747 83.7215 233.747 86.9997C233.747 90.2779 235.976 92.8627 239.378 92.8627C242.78 92.8627 242.487 92.2953 243.66 91.3497V94.2496C242.428 95.0692 240.786 95.4475 239.202 95.4475V95.5105Z" fill="white"/>
<path d="M246.772 78.8669H255.863V81.3887H249.411V85.5495H254.983V88.0082H249.411V92.6733H256.039V95.2581H246.713V78.8669H246.772Z" fill="white"/>
<path d="M263.371 92.9892C265.013 92.9892 266.069 92.2327 266.069 90.8458C266.069 89.4588 265.658 89.3958 264.661 88.8914C263.664 88.3871 261.728 88.0088 260.438 87.2523C259.147 86.4958 258.385 85.298 258.385 83.4697C258.385 80.4437 260.438 78.6785 263.547 78.6785C266.655 78.6785 266.773 79.1198 268.004 79.8132V82.7132C266.538 81.7045 264.778 81.2002 263.547 81.2002C262.315 81.2002 261.024 81.8937 261.024 83.2176C261.024 84.5415 261.494 84.7306 262.491 85.1719C263.547 85.6132 265.482 85.9914 266.773 86.811C268.063 87.6306 268.708 88.8914 268.708 90.5936C268.708 93.7457 266.597 95.574 263.429 95.574C260.262 95.574 259.91 95.0696 258.502 94.187V91.224C260.086 92.4849 262.08 92.9892 263.371 92.9892Z" fill="white"/>
<path d="M312.409 50.3084C312.409 52.2627 311.763 53.9018 310.473 55.2888C309.182 56.6757 307.657 57.3692 305.839 57.3692C304.021 57.3692 302.496 56.6757 301.205 55.2888C299.915 53.9018 299.27 52.2627 299.27 50.3084C299.27 48.354 299.915 46.7149 301.205 45.328C302.496 43.941 304.021 43.2476 305.839 43.2476C307.657 43.2476 309.182 43.941 310.473 45.328C311.763 46.7149 312.409 48.354 312.409 50.3084ZM310.942 50.3084C310.942 48.7953 310.414 47.4714 309.417 46.3997C308.42 45.328 307.188 44.7606 305.78 44.7606C304.373 44.7606 303.141 45.328 302.144 46.3997C301.147 47.4714 300.619 48.7953 300.619 50.3084C300.619 51.8214 301.147 53.1453 302.144 54.217C303.141 55.2888 304.373 55.8561 305.78 55.8561C307.188 55.8561 308.42 55.2888 309.417 54.217C310.414 53.1453 310.942 51.8214 310.942 50.3084ZM309.534 53.7127H307.481L305.487 51.1279H304.842V53.7127H303.2V46.6519H306.778C307.071 46.6519 307.305 46.778 307.599 46.9671C307.892 47.1562 308.127 47.3454 308.244 47.5975C308.361 47.8497 308.479 48.1649 308.479 48.5432C308.479 48.9214 308.361 49.4888 308.068 49.804C307.775 50.1192 307.423 50.3714 307.012 50.5605L309.476 53.5866V53.7127H309.534ZM306.719 48.7323V48.354C306.719 48.2279 306.543 48.1019 306.426 48.0388C306.308 47.9758 306.132 47.9127 306.015 47.9127H304.901V49.8671H306.015C306.191 49.8671 306.367 49.741 306.484 49.6779C306.602 49.6779 306.66 49.4888 306.719 49.3627V48.7323Z" fill="white"/>
</svg>
