<svg width="377" height="95" viewBox="0 0 377 95" fill="none" xmlns="http://www.w3.org/2000/svg">
<path d="M376.145 44.2064C376.285 45.1804 375.909 46.4017 376.278 47.4432L376.883 47.9527V54.696H347.442C346.565 62.301 352.803 67.1712 359.999 64.856C361.938 64.2341 362.889 62.0313 364.422 61.1172C367.777 59.1092 372.4 60.2031 376.145 59.9483C373.749 73.0829 360.109 78.1479 348.327 74.4091C330.079 68.6173 330.057 33.5668 348.895 28.0823C361.222 24.4933 374.214 30.7271 376.145 44.2139V44.2064ZM364.371 46.4541C364.555 34.1438 347.074 34.3311 347.442 46.4541H364.371Z" fill="white"/>
<path d="M70.7662 94.407H65.6125C47.5931 89.0498 61.8376 63.9421 74.8065 75.683C81.3611 81.6171 78.1022 91.0279 70.7662 94.407Z" fill="#F05E86"/>
<path d="M24.4121 0C25.2305 1.14637 26.6756 1.34867 27.7299 2.24029C38.6713 11.5161 25.8719 27.3855 15.2033 19.4883C7.18158 13.5466 10.2413 2.5325 19.2584 0H24.4121Z" fill="#F05E86"/>
<path d="M376.883 47.9529L376.279 47.4434C375.91 46.4019 376.279 45.1806 376.146 44.2065H376.883V47.9529Z" fill="white"/>
<path d="M203.221 79.4216H215.364C215.571 79.4216 217.51 81.7593 218.41 82.3138C226.933 87.5136 233.708 77.998 232.647 69.6812C221.123 82.5311 203.199 72.1538 201.747 56.5691C200.936 47.9077 202.078 36.2791 209.473 30.7196C218.572 23.8789 238.67 27.2206 242.792 38.7592C245.328 45.8697 245.055 66.4444 244.465 74.5889C243.3 90.6006 231.909 95.0138 217.576 93.6651C210.403 92.9907 203.605 86.9442 203.229 79.4291L203.221 79.4216ZM220.688 37.6353C212.209 39.1338 211.582 55.7599 215.099 61.7091C218.616 67.6582 228.37 66.2721 231.098 60.233C234.881 51.8413 232.661 35.5224 220.688 37.6428V37.6353Z" fill="white"/>
<path d="M147.299 24.7255H121.545L120.078 35.9644C122.319 35.6347 124.037 34.0913 126.389 33.7766C141.835 31.7236 152.253 42.2357 150.196 58.0152C147.151 81.3697 106.895 82.3137 106.836 56.9437H118.61C117.903 66.4743 132.309 68.7671 136.173 61.7165C141.754 51.549 133.393 38.6767 122.503 44.7982C120.881 45.7123 119.886 47.9601 119.598 48.005C117.468 48.3422 111.945 46.1993 109.033 47.2033L112.742 14.2583L142.196 14.558C147.35 16.0415 147.822 19.7654 147.299 24.718V24.7255Z" fill="white"/>
<path d="M191.446 51.699H198.804V61.4394H191.446V74.9261H179.672V61.4394H153.918V50.5751L175.985 15.3523C177.084 14.6705 185.614 14.7753 187.251 15.1425C188.622 15.4497 191.446 17.8998 191.446 19.1136V51.7064V51.699ZM179.672 51.699V26.2241L164.218 51.699H179.672Z" fill="white"/>
<path d="M259.145 54.6961C259.588 62.436 264.454 67.1563 272.262 64.6837C274.768 63.8895 275.137 62.1512 276.855 61.1173C280.062 59.1917 284.287 60.1507 287.841 59.9484C285.599 77.9681 258.29 81.1975 250.172 65.7027C246.685 59.0418 246.117 46.9262 248.69 39.9431C253.092 27.9924 265.648 24.7331 276.781 28.8616C283.513 31.3566 286.919 37.1259 288.371 44.0266C288.976 46.8963 290.148 52.6731 288.194 54.6961H259.13H259.145ZM276.811 46.4542C276.302 34.0689 259.639 34.3911 259.153 46.4542H276.811Z" fill="white"/>
<path d="M332.734 73.8023C329.689 76.2674 322.92 75.091 321.129 71.3822C318.592 66.1374 321.07 49.9533 320.266 43.0451C319.551 36.9162 310.843 35.6424 306.95 39.2988C306.456 39.7634 304.775 41.9662 304.775 42.3258V74.9187H293.37C292.3 74.2519 292.359 73.4352 292.227 72.3338C291.401 65.2757 291.74 43.712 294.114 37.4706C295.965 32.6004 300.853 29.6633 305.645 28.2322C315.304 25.3476 328.833 28.6069 331.679 39.6585C331.871 40.4152 332.734 45.0307 332.734 45.3229V73.7948V73.8023Z" fill="white"/>
<path d="M76.4653 13.6516C80.749 12.9773 85.9469 15.6671 87.8565 19.6907C91.8158 28.0299 84.5018 37.0286 75.7059 35.058C73.7816 34.6309 72.1227 32.2483 70.073 33.3347L21.596 67.9431C22.3481 77.4287 13.8766 85.4234 5.01432 80.0661C-5.43311 73.7499 1.85134 56.5169 13.9798 60.4505C15.6092 60.9825 16.8331 62.8706 18.4994 61.8441L65.9737 27.7227C68.5542 26.2242 67.4777 23.8416 67.9791 21.5189C68.7754 17.8175 72.8231 14.2285 76.4653 13.6516Z" fill="#F5BE2E"/>
<path d="M62.5306 56.0597C61.8154 46.1394 73.7006 40.0404 80.727 47.1809C88.8888 55.4677 79.9454 69.0893 69.1367 64.9759C67.2345 64.2491 66.5857 62.3759 64.1821 63.3125C60.562 64.7211 54.5899 71.5619 50.5201 73.4275C49.6869 74.8212 50.3726 77.3012 50.1293 79.0245C48.4925 90.3908 27.8557 90.4433 29.5367 74.5364C30.2298 67.9579 36.3936 64.9684 42.4025 65.9799C44.2384 66.2871 45.3443 67.9055 47.4013 67.3211C51.25 66.2271 58.1658 57.738 62.5232 56.0671L62.5306 56.0597Z" fill="#49557D"/>
<path d="M39.0123 22.358C37.6852 16.806 40.1551 8.94624 46.2747 7.65002C62.2002 4.27834 63.8886 26.5389 51.9666 28.427C48.7962 28.929 46.1936 27.6028 43.9448 27.7302C43.0822 27.7752 30.9316 36.122 30.2386 37.0361C28.5723 39.2314 29.5824 44.2215 25.8369 47.5332C21.1182 51.7066 14.2762 51.0622 10.4275 46.0796C3.5117 37.126 12.632 25.5649 22.9467 29.5884C24.0232 30.008 24.93 31.1843 25.6821 31.3716C28.2036 32.0085 35.9083 23.3171 39.0123 22.358Z" fill="#81C576"/>
</svg>
