<svg width="151" height="177" viewBox="0 0 151 177" fill="none" xmlns="http://www.w3.org/2000/svg">
<g clip-path="url(#clip0_531_826)">
<path d="M151.001 133.354V133.695L147.866 138.464L140.435 138.564L140.215 142.324H150L147.265 146.744L140.041 146.865L139.816 150.615H150.203L147.109 155.785H135.623L136.618 133.354H151.001Z" fill="white"/>
<path d="M52.7321 176.844C50.4882 176.264 50.4246 168.304 52.628 167.864C53.3162 167.724 56.4391 167.674 56.9828 167.944C57.7057 168.304 57.8213 169.874 57.723 170.974C56.7225 171.644 56.1731 170.134 55.6237 169.944C55.2825 169.824 53.5533 169.834 53.2642 169.994C52.4429 170.464 52.6222 174.424 53.2295 174.424H56.1269V173.394H54.3283V171.664H57.723C57.671 173.854 58.1163 175.854 56.7225 176.844H52.7263H52.7321Z" fill="white"/>
<path d="M73.7012 176.844C72.6024 176.134 72.1802 176.134 72.3017 173.734C72.7412 173.844 73.3658 173.554 73.7591 173.734C73.9788 173.834 73.8979 174.624 74.3894 174.784C74.7711 174.904 76.9456 174.784 77.0902 174.424C77.1769 174.104 76.9109 173.394 76.7895 173.394H73.5913C73.3253 173.394 72.4868 172.674 72.3827 172.044C71.9894 169.674 72.3248 168.084 73.7822 167.854C75.2396 167.624 78.8541 166.964 78.484 170.634C77.229 171.314 76.7779 169.634 75.7774 169.584C75.1239 169.554 74.5456 170.034 73.8921 169.944V170.974C75.1066 171.024 76.5986 170.914 77.7842 171.334C78.9697 171.754 79.0391 175.434 78.0387 176.244L76.8878 176.844H73.6897H73.7012Z" fill="white"/>
<path d="M119.244 176.844C118.145 176.134 117.723 176.134 117.845 173.734C118.284 173.844 118.909 173.554 119.302 173.734C119.522 173.834 119.441 174.624 119.932 174.784C120.314 174.904 122.489 174.784 122.633 174.424C122.72 174.104 122.454 173.394 122.332 173.394H119.134C118.868 173.394 118.03 172.674 117.926 172.044C117.532 169.674 117.868 168.084 119.325 167.854C120.783 167.624 124.397 166.964 124.027 170.634C122.772 171.314 122.321 169.634 121.32 169.584C120.667 169.554 120.089 170.034 119.435 169.944V170.974C120.65 171.024 122.142 170.914 123.327 171.334C124.513 171.754 124.582 175.434 123.582 176.244L122.431 176.844H119.233H119.244Z" fill="white"/>
<path d="M43.3458 176.845H39.3496C39.1414 176.365 38.725 176.415 38.4763 176.115C37.6146 175.095 37.5163 169.014 38.806 168.134C39.4305 167.704 42.8658 167.685 43.6349 167.895C45.4914 168.395 45.3815 176.405 43.3458 176.845ZM43.1145 170.335C40.9747 169.515 38.8522 168.974 39.633 174.104L42.9525 174.274L43.1145 170.335Z" fill="white"/>
<path d="M106.659 176.844C105.525 176.064 105.219 176.194 105.062 173.914C104.872 171.054 104.796 168.164 106.751 167.854C108.272 167.614 111.95 166.914 111.453 170.974C111.013 170.864 110.383 171.154 109.996 170.974C109.758 170.864 109.938 170.074 109.169 169.904C107.486 169.544 106.086 169.884 106.699 173.484C106.907 174.714 108.746 174.624 109.359 174.424C109.874 174.254 110.221 172.194 111.453 173.034C111.557 175.584 111.453 176.164 110.053 176.834H106.659V176.844Z" fill="white"/>
<path d="M87.0837 176.844L86.8871 170.285L84.8745 170.134L84.6895 167.865H90.8775L90.6924 170.134L88.4832 170.285V176.844H87.0837Z" fill="white"/>
<path d="M26.7637 176.844V167.865H28.3598V174.424H31.7604L31.7546 176.844H26.7637Z" fill="white"/>
<path d="M97.0702 176.844V167.865H98.5507C98.811 167.935 98.73 176.024 98.464 176.844H97.0645H97.0702Z" fill="white"/>
<path d="M64.3163 176.844V167.865H65.7968C66.0571 167.935 65.9761 176.024 65.7101 176.844H64.3105H64.3163Z" fill="white"/>
<path d="M113.049 0.124512L97.0762 25.8745L96.2839 25.4745L92.8834 20.3245L99.4705 9.78451H85.3883C83.3757 7.42451 81.5482 3.89451 79.5935 1.50451C79.3217 1.17451 79.0672 0.724512 78.6971 0.814512L74.9901 73.2745L55.223 104.695L58.9185 26.3445H37.7461L54.0259 0.124512H113.049Z" fill="white"/>
<path d="M24.5268 133.115C26.7186 132.775 30.0613 132.725 32.2532 133.015C36.7583 133.615 37.0012 136.805 36.7467 143.875C36.5906 148.355 36.2436 153.775 33.3982 155.345C31.2411 156.535 22.4737 156.645 20.4959 155.055C18.518 153.465 18.6915 149.525 18.7667 146.275C18.9517 138.265 19.4317 133.885 24.5268 133.105V133.115ZM32.5018 139.655C32.363 139.405 31.6748 138.955 31.4435 138.895C29.564 138.395 26.7707 138.455 24.8853 138.905C24.2434 139.055 23.7229 139.485 23.4164 140.505C22.8901 142.255 22.5084 149.095 23.6535 149.955C24.3591 150.485 29.4599 150.465 30.4661 150.265C31.2064 150.125 31.7327 149.785 32.1317 148.655C32.5828 147.385 33.0802 140.695 32.5076 139.645L32.5018 139.655Z" fill="white"/>
<path d="M114.451 155.785L115.637 133.505L121.998 133.434L128.828 149.924L129.632 133.354H133.426L132.229 155.785H125.937L119.141 139.214L118.245 155.785H114.451Z" fill="white"/>
<path d="M100.027 133.115C102.213 132.795 108.551 132.525 110.361 134.035C112.519 135.815 112.189 141.025 112.05 144.575C111.888 148.665 111.501 153.555 108.991 155.165C106.782 156.595 98.5 156.605 96.2272 155.345C95.0648 154.705 94.3187 153.115 94.1221 151.045C93.833 148.065 94.2783 139.985 95.0359 137.255C95.9785 133.855 98.0489 133.405 100.027 133.105V133.115ZM107.198 149.465C107.973 148.225 108.488 140.505 107.649 139.405C107.082 138.665 103.659 138.485 102.768 138.525C102.115 138.555 100.432 138.785 99.8533 139.015C98.5116 139.555 98.367 142.175 98.2745 144.225C98.153 146.795 97.9043 149.885 99.7665 150.265C101.114 150.545 104.613 150.525 105.966 150.265C106.33 150.195 106.938 149.875 107.198 149.455V149.465Z" fill="white"/>
<path d="M72.5033 155.784H68.2064L63.6145 138.524L57.224 155.784H52.7305L61.0005 133.674L66.5119 133.524L72.5033 155.784Z" fill="white"/>
<path d="M18.7723 133.354L15.4817 138.874H11.1848L10.3867 155.785H6.39046L7.18855 138.874H0L3.29644 133.354H18.7723Z" fill="white"/>
<path d="M56.3212 133.354C55.8007 134.374 53.5452 138.524 52.9843 138.804C52.1804 139.214 49.1442 138.385 48.8203 139.195L47.9355 155.785H43.9393L44.7374 138.874H37.5488L40.8453 133.354H56.327H56.3212Z" fill="white"/>
<path d="M79.2929 133.354L78.4949 150.264H87.2854L83.9889 155.785H74.0996L75.3025 133.354H79.2929Z" fill="white"/>
</g>
<defs>
<clipPath id="clip0_531_826">
<rect width="151" height="176.72" fill="white" transform="translate(0 0.124512)"/>
</clipPath>
</defs>
</svg>
