<svg width="298" height="70" viewBox="0 0 298 70" fill="none" xmlns="http://www.w3.org/2000/svg">
<path d="M68.8934 63.5233H60.2918L48.2533 51.5273V50.9678C50.4859 49.8299 52.7797 47.006 54.1445 44.8405C69.5624 20.3462 37.488 -6.3364 15.7469 11.9468C-1.61684 26.5497 7.0077 53.8983 29.1348 56.2922V50.3932C27.0093 49.3884 24.7882 48.9508 22.6282 47.7367C8.08577 39.5504 10.6433 17.9029 26.6729 13.3054C47.6646 7.28844 60.9455 34.6599 43.1383 46.7548L38.6998 42.3971C45.2256 38.245 47.4161 29.7732 42.3316 23.5507C33.8753 13.2027 16.7906 20.978 19.6157 33.9863C20.5829 38.4467 24.4594 42.8919 29.1348 43.3486V37.069C29.1348 36.8368 26.6461 34.9149 26.2562 33.4649C23.7101 24.015 37.6409 21.9066 38.6195 31.0862C38.956 34.2489 35.2554 36.7112 35.2554 37.069V69.6088H29.1387V62.9486C29.1387 62.2978 27.296 62.3967 26.7532 62.2788C7.31354 58.0429 -5.15688 39.8625 2.07994 20.4147C12.8339 -8.49049 56.0483 -6.24125 63.4227 24.2472C65.858 34.3136 63.1207 43.36 57.0614 51.4854L68.8895 63.5194L68.8934 63.5233Z" fill="white"/>
<path d="M121.65 56.2923H110.755L102.153 43.3525H94.8894V56.2923H85.332V14.8088H105.785C108.235 14.8088 112.754 16.255 114.887 17.5452C122.013 21.8648 122.441 33.6134 116.305 38.9796C115.361 39.8055 112.051 41.2136 112.077 42.0128L121.654 56.2923H121.65ZM94.5071 34.9797H106.167C106.301 34.9797 108.365 34.1576 108.629 34.0054C111.649 32.2509 111.932 26.7173 109.229 24.704C108.656 24.2777 105.93 23.1854 105.402 23.1854H95.0805C95.0385 23.1854 94.5071 23.7145 94.5071 23.7563V34.9835V34.9797Z" fill="white"/>
<path d="M212.637 56.2923V14.8088H230.413C232.585 14.8088 236.859 16.0153 239.011 16.9058C254.796 23.4328 255.87 45.3087 241.045 53.5559C239.726 54.2904 234.733 56.2923 233.472 56.2923H212.637ZM221.812 47.9195C223.329 48.4637 224.564 47.9309 225.826 47.9157C230.387 47.8586 233.636 48.5094 237.497 45.4571C243.767 40.4981 242.998 28.8561 235.934 24.9209C235.043 24.4223 231.641 23.1816 230.799 23.1816H221.816V47.9195H221.812Z" fill="white"/>
<path d="M160.07 56.2921C159.248 56.06 157.053 47.6186 155.807 47.2152L138.428 47.3827L134.666 56.5129L125.09 56.2921L142.859 15.1854C143.035 14.8848 143.31 14.8505 143.623 14.8049C146.131 14.4395 149.396 15.1055 152.007 14.7858L169.818 56.2921H160.07ZM152.997 39.1659L148.047 27.1586L147.076 26.2223L141.911 39.1659H152.997Z" fill="white"/>
<path d="M287.565 56.2921L283.899 47.1353H266.401L262.341 56.509L253.162 56.2921L270.549 15.1854C270.725 14.8848 271 14.8505 271.313 14.8049C273.821 14.4395 277.086 15.1055 279.697 14.7858L297.508 56.2921H287.569H287.565ZM280.683 39.1659L275.14 25.8417L269.597 39.1659H280.683Z" fill="white"/>
<path d="M176.319 14.8088L185.88 31.1739L196.389 14.8088H206.902C207.04 15.3949 206.665 15.6347 206.44 16.061C202.2 24.1597 195.269 31.9769 190.846 40.1175V56.102C190.846 56.1439 190.315 56.6729 190.273 56.6729H181.862C181.82 56.6729 181.289 56.1439 181.289 56.102V40.1175L165.695 16.061L165.232 14.8088H176.319Z" fill="white"/>
</svg>
