<svg width="378" height="168" viewBox="0 0 378 168" fill="none" xmlns="http://www.w3.org/2000/svg">
<path d="M215.257 0V102.67H157.986V0.758648C157.986 0.703014 158.673 0 158.727 0H215.257ZM184.153 8.59801H166.379V19.2191H184.153V8.59801ZM208.345 8.59801H191.065V19.2191H208.345V8.59801ZM167.12 22.7594C166.957 23.0174 166.379 23.3815 166.379 23.5181V51.3352C166.379 51.3908 167.066 52.0938 167.12 52.0938H183.412C183.467 52.0938 184.153 51.3908 184.153 51.3352V23.5181C184.153 23.4624 183.467 22.7594 183.412 22.7594H167.12ZM208.345 51.588V23.5181C208.345 23.4473 207.757 22.8353 207.565 22.7948C206.755 23.0022 206.009 23.2804 205.15 23.3006C202.465 23.3664 198.94 22.8201 196.234 22.724C194.871 22.6785 192.561 23.2146 191.065 23.2652V51.588H208.345ZM184.153 55.6342H166.379V66.2552H184.153V55.6342ZM208.345 55.6342H191.065V66.2552H208.345V55.6342ZM184.153 69.7956H166.379V95.0838H184.153V69.7956ZM208.345 69.7956H191.065V95.0838H208.345V69.7956Z" fill="white"/>
<path d="M28.6352 136.556H27.154C26.9812 132.702 25.8753 128.894 22.0787 127.341C21.6887 127.18 19.1658 126.441 19.0078 126.441H11.849V144.649C16.8454 145.008 19.3485 144.057 20.2421 138.822C20.3507 138.18 20.5334 137.234 21.2295 138.079C21.2937 142.049 22.6514 148.341 21.2739 152.038C21.0222 152.716 21.4862 152.908 20.247 152.746C19.9261 147.521 16.5393 146.11 11.849 146.677V165.896H19.5015C19.6694 165.896 22.2515 165.294 22.7353 165.163C28.1711 163.711 29.0746 160.555 30.1163 155.507C30.299 154.612 29.6176 154.031 31.1037 154.263V167.413H0V165.896H4.9371V126.441H0V124.924H27.8946C27.9489 124.924 28.6352 125.627 28.6352 125.682V136.556Z" fill="white"/>
<path d="M317.949 165.385C318.23 165.663 321.741 164.606 321.405 166.902L312.785 166.933L312.271 165.385C311.427 165.334 310.469 167.135 308.796 167.388C299.173 168.85 292.957 158.942 295.851 150.081C297.667 144.512 303.306 140.137 309.201 141.23C310.568 141.483 311.264 142.459 312.523 142.631V124.929H309.067V123.412H317.213C317.268 123.412 317.954 124.115 317.954 124.17V165.39L317.949 165.385ZM304.965 142.727C300.363 143.779 300.383 153.348 300.664 157.045C300.965 160.975 301.997 166.336 306.841 166.321C310.83 166.311 312.257 163.767 312.538 160.095C312.819 156.423 312.844 150.369 312.523 146.92C312.138 142.798 308.554 141.907 304.965 142.727Z" fill="white"/>
<path d="M198.967 123.912V144.649C202.166 141.194 205.316 140.274 209.833 141.862C217.856 144.684 214.583 159.22 215.259 165.891C215.694 166.336 219.273 164.905 218.715 166.902H206.372C205.819 164.905 209.394 166.341 209.828 165.891C209.483 160.044 210.282 153.697 209.848 147.911C209.428 142.272 204.121 140.709 200.719 144.674C200.275 145.195 198.962 148.442 198.962 148.943V165.886H202.911C203.203 166.189 202.472 167.403 202.171 167.403H190.569V165.886H194.025V124.914C193.59 124.469 190.011 125.9 190.569 123.902H198.962L198.967 123.912Z" fill="white"/>
<path d="M232.537 166.902C231.924 166.366 232.438 165.921 233.267 165.891C236.397 165.775 236.61 166.351 238.061 163.205C242.519 153.555 245.546 139.647 249.313 129.213C250.009 127.291 251.293 121.525 253.164 125.288L266.691 164.535C267.669 166.371 270.152 165.82 271.796 165.891C272.764 165.931 272.567 165.861 272.527 166.902H254.753C254.714 165.835 254.526 165.941 255.484 165.891C256.225 165.855 259.656 166.124 259.696 165.633L255.672 153.318L242.959 153.302L239.444 165.38C241.201 165.653 242.84 165.82 244.637 165.886C245.605 165.921 245.408 165.845 245.373 166.897H232.537V166.902ZM255.247 152.235L249.57 134.023L243.398 152.235H255.247Z" fill="white"/>
<path d="M127.869 123.407V143.132C129.098 142.965 129.775 142.019 131.053 141.594C135.981 139.945 141.565 143.895 143.86 148.245C149.39 158.694 139.669 172.248 128.6 165.901C127.518 168.607 125.786 167.075 123.672 166.903C122.285 166.786 120.858 166.989 119.471 166.903C118.913 164.91 122.492 166.341 122.927 165.896V124.924C122.492 124.479 118.913 125.91 119.471 123.918L127.864 123.412L127.869 123.407ZM137.605 165.239C141.273 161.794 140.676 149.034 138.35 144.785C136.46 141.326 128.565 141.806 127.894 146.439C127.518 149.034 127.533 159.968 128.086 162.381C128.97 166.215 134.978 167.707 137.605 165.239Z" fill="white"/>
<path d="M357.94 141.614L358.186 144.143C362.763 137.998 372.988 141.336 373.748 148.943C374.266 154.117 373.353 160.12 373.738 165.39C374.069 165.729 378.009 164.48 377.688 166.908H364.851C364.521 164.606 368.026 165.674 368.312 165.39C367.582 159.69 369.497 150.587 367.833 145.392C366.135 140.077 358.774 142.55 357.964 147.967C357.155 153.383 358.492 160.024 357.94 165.395H361.4V166.913H349.058V165.395H352.514V143.137H349.053V141.619H357.94V141.614Z" fill="white"/>
<path d="M113.559 165.891L116.516 164.879C116.946 166.645 115.001 167.393 113.574 167.702C111.367 168.177 108.829 166.852 108.612 164.374C107.22 164.333 106.573 166.078 105.339 166.832C99.7796 170.23 91.7272 165.845 94.1908 158.446C96.1262 152.62 103.423 154.4 107.635 152.397C108.484 148.892 107.6 140.137 102.199 142.884C100.594 143.698 101.789 145.094 101.754 146.429C101.685 148.837 99.281 149.332 97.4691 148.235C94.3241 143.152 101.374 140.638 105.373 141.149C116.892 142.621 111.609 158.234 113.559 165.896V165.891ZM108.128 154.258C107.773 153.874 101.596 154.997 100.742 155.548C97.2617 157.809 98.1553 168.733 104.672 165.638C108.898 163.63 108.064 158.229 108.128 154.258Z" fill="white"/>
<path d="M43.9383 123.913V165.891H47.3942V166.903H35.5452C34.9923 164.905 38.5667 166.341 39.0012 165.891V124.919C38.5667 124.474 34.9873 125.905 35.5452 123.907H43.9383V123.913Z" fill="white"/>
<path d="M87.8792 141.614L87.4942 143.496L74.0554 165.891H81.7079C82.3003 165.891 85.6477 164.445 86.1414 163.858C87.0794 162.74 87.4645 160.262 87.3855 158.81C87.6966 158.861 88.8667 158.739 88.8667 158.81V166.65C88.8667 166.705 88.1804 167.408 88.1261 167.408H68.1309L81.9547 143.384C76.914 142.58 70.2637 142.818 71.0931 149.712H69.612V142.373C69.612 142.317 70.2982 141.614 70.3526 141.614H87.8792Z" fill="white"/>
<path d="M345.597 153.247H329.304V161.086C329.304 162.705 331.718 165.714 333.476 165.916C337.707 166.402 341.672 165.208 343.869 161.329C346.179 160.904 344.718 163.018 343.878 163.873C334.024 173.877 319.603 162.578 324.13 149.206C328.406 136.572 346.732 139.364 345.601 153.247H345.597ZM340.659 151.73C340.358 146.313 339.712 141.427 333.111 142.737C328.954 143.561 329.561 148.452 328.81 151.73H340.659Z" fill="white"/>
<path d="M177.242 143.132H172.799V141.614H177.247C177.504 140.087 176.768 136.708 177.479 135.53C177.81 134.974 179.301 134.675 179.977 134.043C180.55 133.512 180.915 132.278 181.449 132.005C182.13 131.656 182.678 133.082 182.678 133.269V141.614H187.615V143.132H182.673L183.167 165.39C185.887 165.947 186.563 164.202 187.121 161.85C188.089 161.799 188.109 161.617 188.124 162.619C188.188 166.953 181.844 169.593 178.743 166.634C178.457 166.361 177.247 164.273 177.247 164.121V143.132H177.242Z" fill="white"/>
<path d="M281.66 141.614L282.89 144.138C283.576 141.164 286.849 140.613 289.461 141.21C293.845 142.211 293.04 150.521 288.306 148.983C285.501 148.073 287.654 145.271 287.333 143.132C286.262 143.056 285.501 143.005 284.588 143.607C280.609 146.217 283.102 160.803 282.396 165.385C282.677 165.663 286.188 164.596 285.857 166.903H273.021C272.7 164.475 276.644 165.729 276.97 165.385V143.127H273.509V141.609H281.655L281.66 141.614Z" fill="white"/>
<path d="M171.315 153.247H154.529C154.46 156.337 154.549 163.989 157.516 165.613C160.024 166.983 164.547 166.164 166.852 164.606C167.509 164.161 170.195 160.692 170.822 161.339C169.839 165.193 164.863 167.955 161.194 167.955C149.182 167.955 144.769 151.274 153.581 143.931C161.658 137.204 171.444 143.314 171.315 153.247ZM154.529 152.235H165.638C165.929 152.235 166.373 151.426 166.403 150.976C166.462 150.071 165.494 145.665 165.011 144.791C164.206 143.349 162.754 142.697 161.219 142.595C155.531 142.216 154.356 147.461 154.534 152.24L154.529 152.235Z" fill="white"/>
<path d="M60.2333 141.614V165.891H63.6893V166.903H53.5683C52.6154 166.903 50.9615 168.769 51.3466 165.891H54.8025V143.132H51.3466C51.0553 142.828 51.786 141.614 52.0871 141.614H60.2333Z" fill="white"/>
<path d="M57.1361 123.988C61.1401 123.184 63.026 129.921 58.8986 130.887C53.0185 132.263 52.9494 124.828 57.1361 123.988Z" fill="white"/>
<path d="M180.7 26.8054H170.332V48.0476H180.7V26.8054Z" fill="white"/>
<path d="M204.889 26.8054H194.521V48.0476H204.889V26.8054Z" fill="white"/>
<path d="M180.696 73.3359V91.5435H170.575C170.52 91.5435 169.834 90.8405 169.834 90.7848V74.0946C169.834 74.039 170.52 73.3359 170.575 73.3359H180.696Z" fill="white"/>
<path d="M204.889 73.3359H194.521V91.5435H204.889V73.3359Z" fill="white"/>
<path d="M180.697 12.1384V15.6788H169.835C169.88 14.3992 169.445 12.9578 170.576 12.1384H180.697Z" fill="white"/>
<path d="M180.696 59.1746H169.834V62.7149H180.696V59.1746Z" fill="white"/>
<path d="M204.889 59.1746H194.521V62.7149H204.889V59.1746Z" fill="white"/>
<path d="M204.889 12.1384H194.521V15.6788H204.889V12.1384Z" fill="white"/>
</svg>
