<svg width="315" height="84" viewBox="0 0 315 84" fill="none" xmlns="http://www.w3.org/2000/svg">
<path d="M148.261 25.4663C144.889 27.9612 142.695 31.4873 141.877 35.9781H175.831C174.881 31.3542 172.917 27.8281 170.003 25.3665C167.089 22.8716 163.487 21.7073 159.427 21.7073C155.367 21.7073 151.634 23.0047 148.261 25.4996M188.273 44.7268H141.549C142.138 50.0492 144.005 54.1741 147.377 57.3675C150.75 60.561 154.581 62.0912 159.001 62.0912C167.023 62.0912 172.589 58.6649 175.962 51.9453L186.767 54.3071C184.442 60.3281 180.841 64.952 175.962 68.1121C171.083 71.1725 165.386 72.8358 158.87 72.8358C150.848 72.8358 143.874 70.0083 138.046 64.2201C132.217 58.432 129.336 51.1137 129.336 41.999C129.336 32.8844 132.25 25.3332 138.046 19.5451C143.874 13.757 150.946 10.7964 159.329 10.7964C167.121 10.7964 173.866 13.5241 179.433 19.0794C185.032 24.6347 187.913 31.7201 188.273 40.4688V44.7268Z" fill="white"/>
<path d="M247.571 72.2371H196.885V64.0871L231.167 21.4413H196.983V11.2954H247.669V19.5452L211.881 62.0912H247.669V72.2371H247.571Z" fill="white"/>
<path d="M274.877 25.4663C271.504 27.9612 269.31 31.4873 268.492 35.9781H302.446C301.497 31.3542 299.532 27.8281 296.618 25.3665C293.704 22.8716 290.102 21.7073 286.042 21.7073C281.982 21.7073 278.249 23.0047 274.877 25.4996M314.889 44.7268H268.164C268.754 50.0492 270.62 54.1741 273.993 57.3675C277.365 60.561 281.196 62.0912 285.616 62.0912C293.638 62.0912 299.205 58.6649 302.577 51.9453L313.382 54.3071C311.058 60.3281 307.456 64.952 302.577 68.1121C297.699 71.1725 292.001 72.8358 285.485 72.8358C277.463 72.8358 270.489 70.0083 264.661 64.2201C258.833 58.432 255.951 51.1137 255.951 41.999C255.951 32.8844 258.865 25.3332 264.661 19.5451C270.489 13.757 277.562 10.7964 285.944 10.7964C293.737 10.7964 300.482 13.5241 306.048 19.0794C311.647 24.6347 314.528 31.7201 314.889 40.4688V44.7268Z" fill="white"/>
<path d="M0 29.2587L12.6061 51.4465L21.7741 46.1241L37.2288 36.9762L31.9899 27.6619L24.9174 31.8201C27.2422 24.9675 32.0227 18.9465 38.4076 15.2873C51.3083 7.73615 67.4834 10.9296 76.7824 22.1399L16.2078 57.7003L18.8927 62.3242C30.1563 82.1834 55.2702 89.036 74.8178 77.5596C84.5752 71.8712 91.4513 62.3242 94.1035 51.4465L98.7857 59.5632L107.954 54.2407L95.3477 32.0529L86.1796 37.3753L70.7249 46.5232L75.9638 55.8375L83.0363 51.6793C80.7116 58.5319 75.9311 64.5529 69.5462 68.2121C56.6454 75.7633 40.4704 72.5698 31.1714 61.3595L91.7787 25.7991L89.0938 21.1752C77.8302 1.34925 52.7163 -5.50336 33.1687 5.9731C23.4113 11.6282 16.5352 21.2085 13.8503 32.0862L9.16805 23.9695L0 29.2919L0 29.2587Z" fill="white"/>
</svg>
