<svg width="386" height="86" viewBox="0 0 386 86" fill="none" xmlns="http://www.w3.org/2000/svg">
<g clip-path="url(#clip0_531_803)">
<path d="M80.7988 0.481819L48.2622 42.4058H53.0546C63.6866 29.0221 73.972 15.3692 84.5211 1.93315C84.8602 1.49925 85.2294 0.990532 85.6815 0.661365V85.407H0V76.9833H3.79768C3.80522 76.7664 3.88811 76.5718 4.00867 76.3923C6.78911 72.0458 10.5114 68.1482 13.4652 63.8989L13.8721 63.5847L25.9584 63.5398C26.1694 63.5398 26.3502 63.5548 26.4934 63.7268C26.6365 63.8989 27.7593 67.7591 27.8045 68.1706C27.8271 68.3801 27.8949 68.5821 27.8045 68.7915C25.7399 71.7017 23.5019 74.4771 20.9701 76.9908H26.8475C27.6915 75.5395 28.5504 74.0881 29.741 72.8762C30.1554 72.8762 30.7808 76.4596 30.9391 76.9683H37.035C37.6302 75.3749 38.7756 74.0582 39.951 72.8687L40.8552 76.9908H48.6315C46.7552 73.7216 45.9339 70.0035 44.6906 66.4724C44.6831 66.3078 46.4312 63.8391 46.5593 63.7343C46.7326 63.5922 46.8607 63.5174 47.0868 63.5398L59.4895 63.6296C60.4314 66.9587 61.8781 70.3775 62.6844 73.7216C62.9481 74.8138 63.2043 75.8462 63.0988 76.9833H71.2292C70.1893 75.3075 69.5413 73.3774 68.8782 71.5221C67.5822 67.8863 66.354 63.9737 65.2162 60.2781C63.7016 55.3555 62.2549 50.3656 61.1171 45.3458H54.9534C54.1396 47.246 52.8737 48.8619 51.6756 50.5227C48.9404 54.3007 45.9791 57.9589 43.0329 61.5723C43.0555 60.697 41.9102 58.6846 42.2191 57.9963L50.2666 47.867L52.61 45.2635H46.5518C46.175 46.064 46.0319 46.67 45.527 47.4705C44.0577 49.7896 41.7444 51.8993 40.2298 54.2259C39.4236 51.3083 38.0899 48.3009 37.9693 45.2635H30.3739L35.0683 59.1634C35.1964 59.6422 33.0564 62.2157 32.9057 62.1034L28.6484 48.3158L28.3093 45.4281C28.0456 45.0316 22.7108 45.3907 21.8216 45.2561C20.7893 47.5154 19.433 49.5128 17.9787 51.5177C14.2715 56.6348 10.1347 61.4601 6.41236 66.5696L0 74.4771V0.481819C26.9304 0.55663 53.8683 0.384565 80.7988 0.481819Z" fill="white"/>
<path d="M201.188 45.8096L209.499 68.567L217.727 45.8096H222.158V76.6241H218.541L218.812 50.6423L210.561 73.2801C210.207 73.8711 208.821 73.4522 208.173 73.5868L199.568 50.6423L200.118 58.0711V76.6241H196.312V45.8096H201.195H201.188Z" fill="white"/>
<path d="M259.84 45.8097C263.547 52.3108 267.549 58.6697 271.165 65.2156C272.168 67.0335 273.057 69.1357 274.112 70.8938C274.232 71.0883 274.292 71.3875 274.564 71.4249L274.014 61.6696C274.451 56.8668 273.456 51.1138 274.014 46.4232C274.036 46.2436 274.097 45.8022 274.292 45.8022H277.819V76.6168H273.66L259.29 50.9941L259.561 76.6168H255.764V45.8022H259.833L259.84 45.8097Z" fill="white"/>
<path d="M348.045 45.8097C353.628 46.2586 357.343 49.3857 356.989 55.2134C356.733 59.4477 354.05 62.0586 350.117 63.2855L357.712 76.6317H353.463L345.958 63.5548H340.623C340.623 63.5548 340.352 63.8017 340.352 63.8241V76.6317H336.373V45.8172C340.156 46.0416 344.285 45.5179 348.03 45.8172L348.045 45.8097ZM340.367 60.5025H346.244C347.57 60.5025 349.725 59.8891 350.84 59.141C353.719 57.2183 353.952 51.817 350.863 50.0141C350.351 49.7148 348.399 49.034 347.872 49.034H340.367V60.5025Z" fill="white"/>
<path d="M363.5 76.6317V45.8172C370.078 45.9893 377.756 44.5903 382.571 50.1113C387.386 55.6324 387.1 66.7492 382.654 72.0608C380.71 74.3799 376.611 76.6317 373.529 76.6317H363.5ZM367.479 73.4074H372.813C383.204 73.4074 384.915 54.787 377.063 50.3807C376.144 49.8645 373.816 49.0415 372.813 49.0415H367.479V73.4074Z" fill="white"/>
<path d="M226.49 76.6318L237.054 45.8022L241.327 45.9219L251.612 76.6318H247.453L244.567 67.4001H233.347L230.461 76.6318H226.482H226.49ZM234.439 64.086H243.474L239.043 49.0341L234.439 64.086Z" fill="white"/>
<path d="M306.926 76.6317L317.317 45.9892C317.671 45.5627 321.054 45.9518 321.823 45.8021L332.236 76.6317H328.077L325.191 67.4H313.971L311.085 76.6317H306.926ZM315.056 64.0859H324.091L319.66 49.034L315.056 64.0859Z" fill="white"/>
<path d="M107.729 76.6317L118.119 45.9892C118.474 45.5627 121.857 45.9518 122.625 45.8021L133.039 76.6317H128.88L125.994 67.4H114.774L111.617 76.6317H107.729ZM115.866 64.0859H124.901L120.47 49.034L115.866 64.0859Z" fill="white"/>
<path d="M182.748 76.6317H178.588L175.718 67.4225L164.325 67.3327L161.326 76.6317H157.438L167.851 45.8022C169.094 45.9817 170.812 45.6002 171.988 45.8096C172.191 45.847 172.334 45.8994 172.425 46.0939L182.74 76.6242L182.748 76.6317ZM174.61 64.0859L169.916 49.034L165.395 64.0859H174.61Z" fill="white"/>
<path d="M293.515 45.3235C297.667 44.9046 301.186 46.1838 304.215 48.9518L302.135 51.5029C299.31 49.079 295.241 47.7324 291.669 49.4157C288.715 50.8146 288.565 54.4579 291.013 56.4703C295.55 60.1959 304.984 59.9041 305.3 67.9238C305.737 78.8537 289.401 79.6766 283.953 72.592C284.239 72.1656 286.018 69.9288 286.379 70.0036C289.258 73.2579 295.633 75.2403 299.385 72.4723C301.178 71.1482 301.736 68.4924 300.741 66.5324C299.377 63.8467 291.827 61.9465 289.039 60.0313C282.039 55.2285 285.535 46.124 293.508 45.316L293.515 45.3235Z" fill="white"/>
<path d="M138.728 45.8096L145.691 58.1758L151.839 45.8096H155.991L147.846 60.9588L156.39 75.9658L156.534 76.6316H152.472L145.058 63.3751L138.095 76.6316H133.943L142.797 60.7568L134.486 45.8096H138.728Z" fill="white"/>
<path d="M85.681 0.661386C85.2364 0.990553 84.8672 1.49927 84.5206 1.93317C73.9639 15.3767 63.6785 29.0221 53.054 42.4058H48.2617L80.7982 0.48184C82.1847 0.48184 84.1137 0.317256 85.4172 0.48184C85.5604 0.496802 85.6885 0.48184 85.681 0.668867V0.661386Z" fill="#E30D2F"/>
<path d="M25.3026 59.9638H16.8105L23.0496 51.3606C23.2154 54.353 24.5039 57.1135 25.3101 59.9638H25.3026Z" fill="white"/>
<path d="M58.201 59.9638H49.709L55.948 51.3606C56.1364 54.3455 57.4174 57.1135 58.2086 59.9638H58.201Z" fill="white"/>
<path d="M36.8763 63.9064L38.1498 68.1108C38.1272 68.2828 36.4619 70.5571 36.2057 70.8488C36.1002 70.976 36.2133 71.1855 35.7913 71.0808L34.5254 66.6968C34.5555 66.45 36.0701 64.5348 36.3715 64.2206C36.5297 64.0485 36.5297 63.8316 36.8763 63.9214V63.9064Z" fill="white"/>
</g>
<defs>
<clipPath id="clip0_531_803">
<rect width="386" height="85" fill="white" transform="translate(0 0.406982)"/>
</clipPath>
</defs>
</svg>
