<svg width="149" height="134" viewBox="0 0 149 134" fill="none" xmlns="http://www.w3.org/2000/svg">
<g clip-path="url(#clip0_277_81)">
<path d="M75.2514 134C37.9943 134 7.67969 103.943 7.67969 67.0028C7.67969 30.0625 37.9943 0 75.2514 0C112.508 0 142.823 30.0569 142.823 66.9972C142.823 103.938 112.508 133.994 75.2514 133.994V134ZM75.2514 5.02437C40.787 5.02437 12.7471 32.8259 12.7471 66.9972C12.7471 101.169 40.787 128.97 75.2514 128.97C109.716 128.97 137.756 101.169 137.756 66.9972C137.756 32.8259 109.721 5.02437 75.2514 5.02437Z" fill="black"/>
<path d="M146.128 76.499C145.323 76.164 145.982 75.6169 146.128 75.0307C144.636 74.0147 142.801 73.7579 142.063 71.871C144.479 70.7712 144.501 63.2402 141.129 65.5793C143.448 66.4949 141.641 68.2143 142.153 69.9896C141.309 70.0957 141.196 69.2192 140.611 68.9345C143.06 64.4461 137.542 63.3798 138.021 65.557C136.652 65.3393 137.401 63.5305 137.142 62.4866C137.001 63.8655 133.038 66.9471 133.854 64.1669C134.986 63.2179 134.197 61.1579 135.678 60.6499C138.606 59.243 135.656 59.9241 135.25 59.2375C134.355 60.4433 132.857 58.7071 133.049 57.5459C132.66 57.5124 132.193 58.3331 132.03 57.2835C134.192 56.0498 137.503 56.8816 135.464 55.017C133.916 55.4301 131.681 58.0037 130.926 55.6199C130.78 56.3791 130.324 56.7364 129.597 56.8537C129.355 55.5697 130.746 55.7037 129.445 54.3471C131.697 52.4546 130.605 54.9779 131.973 55.3966C133.358 53.8837 130.419 52.3708 131.788 51.1985C132.334 50.8133 132.638 50.1713 132.593 49.4064C132.148 49.7302 131.743 50.0261 131.27 50.3667C132.818 45.9843 140.605 40.53 141.866 35.3159C140.915 35.7681 141.117 36.5999 140.211 37.0242C140.076 36.4287 140.389 36.0398 141.151 35.8574C141.095 34.9865 140.92 34.0933 141.545 33.3173C140.819 31.983 139.473 33.1498 140.436 34.0709C141.906 34.9418 137.266 37.8671 136.264 38.0569C136.568 37.0967 136.596 36.7059 136.32 35.8685C136.759 35.6006 136.675 34.4561 136.99 33.6299C137.255 33.3396 138.223 33.3061 138.184 32.3571C138.184 32.3571 138.184 32.3571 138.184 32.3515C137.902 33.3285 137.165 32.8539 136.371 32.9712C137.79 30.8218 139.349 29.1582 138.539 26.5735C140.656 25.3509 140.284 23.0285 138.116 20.8903C138.189 21.2532 138.234 21.4653 138.28 21.6998C136.607 21.2867 136.849 19.383 135.064 19.3774C132.244 17.3119 123.995 23.4695 123.269 21.069C122.92 21.3258 122.824 21.724 122.981 22.2637C121.929 22.9113 121.805 21.7389 120.724 22.1074C121.005 20.4493 121.99 19.1709 122.993 18.099C120.268 18.6908 123.195 15.5589 123.207 14.3977C121.456 3.61208 108.1 10.8918 101.028 12.1033C101.94 13.2365 100.026 13.1919 99.2658 13.672C99.277 13.4543 99.2827 13.3147 99.2939 13.1249C97.6217 13.4152 97.0586 15.8269 95.2625 14.6378C95.0654 14.9392 94.8965 15.196 94.7107 15.4808C95.0485 15.464 95.285 15.4473 95.6003 15.4305C95.1048 16.2512 91.5351 18.8136 91.7153 16.6866C92.4754 16.7759 93.0722 16.4521 93.5958 15.9497C93.3875 15.9162 93.2073 15.9665 93.0384 16.0446C92.5936 16.2512 92.1544 16.4689 91.7153 16.681C90.8876 17.3063 90.0599 17.926 89.1872 18.5847C89.4518 18.7187 89.5869 18.7857 89.7502 18.8638C89.0126 19.8687 87.971 19.0202 87.2277 19.5505C87.7176 16.8262 86.4451 18.8694 84.908 19.2435C84.6546 18.0488 85.5724 17.3844 85.8652 16.6531C85.3021 15.7097 85.2965 15.2407 86.2987 14.8723C86.5521 13.3873 85.3753 11.8967 83.81 12.5387C82.9486 12.6504 82.2166 11.3943 81.2876 12.1144C80.0263 12.7955 78.9678 10.7579 77.9768 12.522C75.7584 12.9965 73.7314 14.2303 72.6729 16.2791C70.9106 14.8834 67.9376 20.6838 66.3611 19.0983C65.9369 20.1032 65.5653 20.5907 65.2463 20.561C65.1337 20.1032 66.0289 19.8352 65.5954 19.3607C64.5537 21.8338 63.2587 20.5665 61.9918 21.7166C62.2959 22.2134 62.1157 22.6489 61.7948 23.0676C61.1247 22.66 60.6461 23.944 59.7115 24.3181C59.8354 22.7047 60.7588 22.9113 61.1923 21.5714C59.7847 21.6663 59.734 21.6161 59.7171 20.3879C59.3061 19.5728 59.0809 19.45 59.7565 18.6126C60.145 18.875 60.77 18.8303 60.4097 19.5728C61.2768 20.667 62.2734 17.8645 61.5358 16.7201C60.1225 18.8918 60.0606 16.2456 60.8432 15.1849C60.1675 14.0181 59.2385 14.5708 58.2138 14.6378C61.3443 8.50805 56.8343 12.455 55.3197 10.5904C54.6834 10.7244 54.4807 11.8576 53.6249 11.1319C50.3648 12.6448 45.8604 15.5478 42.4484 18.1995C42.6905 18.3279 42.865 18.4228 43.1409 18.5735C39.132 19.6789 35.6636 23.062 32.5218 25.8812C32.9947 25.9984 33.4677 26.1101 34.1265 26.272C33.5128 26.5679 33.113 26.7689 32.6625 26.981C31.0353 25.2895 28.237 31.0005 27.094 28.8791C26.835 29.1303 26.0749 29.2085 25.6413 29.4094C26.2663 31.2852 22.7585 31.5643 23.1977 33.2726C21.379 33.8421 22.3925 35.9914 19.7462 35.7457C18.7102 37.7722 17.1561 39.4526 15.2418 40.731C14.0931 39.6982 15.0222 39.2237 16.0469 40.1281C15.8949 39.3689 15.6584 38.6599 14.9152 38.2691C15.3506 37.6289 15.9287 37.4168 16.6494 37.6327C18.2541 36.1979 19.0649 33.8755 21.0525 33.0047C18.6989 32.8204 24.6616 29.0801 25.2021 26.914C23.9634 25.362 25.6132 23.5365 26.3902 25.7193C26.9138 25.0494 27.3755 24.4576 27.7584 23.972C26.2832 21.845 30.1795 22.7884 26.2381 20.8066C26.0974 21.0801 25.9679 21.3314 25.8496 21.5714C24.6672 21.2532 24.4927 21.3202 23.8452 22.2413C22.4207 24.4744 18.5187 25.8142 19.5266 28.3432C17.1392 28.3432 13.1529 32.96 12.4828 35.0758C11.0752 38.0067 8.68787 40.5077 7.421 43.3939C7.83203 44.0527 7.2352 44.2704 6.90863 44.6054C6.46945 46.0736 5.07871 46.8273 4.58886 48.3569C2.01009 49.5628 6.89737 53.8893 2.30288 53.2138C1.71167 55.3464 1.29502 57.3561 0 59.3212C1.60469 59.952 0.439179 62.0679 2.29161 62.3916C1.75109 61.4426 2.47742 61.1244 3.06862 60.5773C1.77924 59.1816 3.31637 59.4719 4.27355 59.8013C4.17783 60.0414 4.1159 60.1921 3.99766 60.488C5.50663 60.0525 5.4278 61.3309 5.01678 62.2632C5.88951 62.8829 6.87484 65.0713 7.93901 62.8215C8.33877 63.3909 8.29373 64.1502 8.90746 64.1502C7.87707 60.9067 11.3905 60.1418 13.1134 58.4224C14.0931 56.6471 15.8105 57.0044 14.0875 59.0197C15.1573 59.5333 23.7832 50.4392 19.0874 53.5097C19.4759 51.2375 22.049 51.0645 21.5873 48.6193C24.5546 49.3562 23.5355 47.0896 25.4837 46.0792C26.0749 44.9013 32.488 41.7024 31.8349 40.0444C32.7977 39.8434 33.0004 41.2111 32.0939 40.8873C28.7775 45.2809 22.8824 48.3569 20.5851 53.1189C23.04 52.047 25.2922 48.2341 26.9363 47.6032C26.3845 50.2327 22.4432 50.9975 22.4094 53.4762C24.0085 55.1845 25.7764 49.9591 27.4093 50.1713C26.1987 52.9402 24.0028 55.3129 22.0378 57.3952C22.3306 57.3338 22.6008 57.278 22.8429 57.2221C22.4826 58.9025 21.6943 59.8404 20.9229 61.2025C20.0784 63.0113 19.2225 64.5968 17.9726 66.0092C16.2271 71.5137 11.8072 76.8284 11.5482 82.5394C11.8466 81.7578 12.1844 81.2498 12.8544 80.9483C12.6236 83.5108 14.5943 82.2212 14.6393 83.8736C15.3938 83.9741 15.8836 83.8066 15.6922 84.778C16.5762 84.0076 16.8296 84.672 17.2519 85.4312C16.6851 86.0341 16.5762 86.5533 16.9253 86.9887C16.8239 84.3482 19.8644 86.8659 15.2136 88.1276C17.2631 88.3565 19.1775 89.8973 21.3171 89.0766C21.8632 90.584 22.4713 89.7745 23.361 89.0264C24.29 90.1262 22.6121 90.6454 23.1414 92.0913C24.6109 90.9301 24.0591 88.0215 25.9904 88.2783C25.2866 88.8813 25.9397 90.0089 24.7798 90.1318C24.7798 91.1311 24.7686 91.1199 24.0422 92.4151C23.2765 94.0731 24.3069 94.81 22.3362 95.988C22.37 96.2336 22.415 96.5351 22.4713 96.8979C23.2146 96.1443 23.6763 95.2957 24.594 94.7151C24.8812 95.9377 24.7911 96.63 24.2337 97.4953C25.5062 97.6069 26.1143 97.1603 27.398 96.027C24.5771 99.5273 27.3755 97.2943 26.7843 99.8902C27.4881 99.4101 27.5669 98.5001 28.4847 98.3606C28.3271 99.5832 28.0286 100.94 28.7606 101.833C28.389 101.984 28.0849 102.101 27.8091 102.213C28.4228 103.781 30.3371 101.894 30.6693 103.815C32.595 101.693 34.4587 105.082 36.5532 103.056C38.9631 104.518 35.7987 107.946 37.9777 108.633C36.2098 110.983 38.3606 109.76 38.2987 111.692C38.6196 111.513 38.8448 111.39 39.0757 111.262C38.9011 111.284 38.7322 111.307 38.5464 111.329C38.5915 109.827 39.2446 108.437 40.3594 107.689C40.1793 108.884 39.8245 109.682 39.4417 110.76C39.5655 110.648 39.6894 110.531 39.8133 110.419C39.8696 110.514 39.9259 110.609 39.9822 110.704C39.9428 111.1 39.9034 111.491 39.8696 111.882C39.9484 111.882 40.0272 111.882 40.1061 111.882C40.0667 111.491 40.0216 111.095 39.9822 110.704C42.0542 110.542 40.3763 112.535 40.4833 113.78C41.0576 112.462 42.0711 113.115 42.8143 112.183C43.4337 111.463 43.597 110.374 44.8244 110.291C44.9483 111.737 43.4731 112.462 44.0587 113.947C44.7906 113.021 45.8041 108.895 46.6375 111.424C45.9055 112.607 44.4528 118.218 43.1353 115.125C42.5666 116.538 44.1938 116.822 44.9596 117.682C47.2624 116.471 48.6081 117.637 50.8997 117.621C50.8209 117.922 50.759 118.162 50.6689 118.497C53.5517 118.592 56.8456 113.411 58.9964 116.046C62.3972 112.607 66.0402 109.085 68.4275 104.898C69.1088 104.194 69.6718 105.188 70.3756 105.238C69.6099 103.943 71.1189 103.262 71.8396 102.201C71.7776 103.731 73.6019 105.344 74.7168 104.535C75.7021 105.585 74.4465 106.104 73.6526 105.171C71.3779 106.958 74.5084 106.009 72.7968 108.471C72.4871 108.409 72.2225 108.353 71.7213 108.247C72.7799 110.039 75.1728 110.843 77.0534 109.939C77.4082 111.915 78.4948 110.067 79.3901 109.922C81.7549 110.732 81.8056 107.41 83.8157 107.678C85.2458 108.934 83.765 108.711 84.069 109.822C86.7323 106.818 90.8538 104.038 91.7321 100.454C90.6229 99.3208 93.1398 97.0152 94.1814 96.3787C94.3334 97.0487 93.7253 97.7297 94.4967 98.1373C93.9112 98.6564 93.7366 98.1373 93.4438 97.9754C92.5429 99.064 91.811 100.002 91.6083 101.252C93.3481 101.13 94.4066 98.8909 95.5553 97.7186C94.615 97.2217 95.071 96.0494 96.1408 95.9489C96.0395 96.3732 95.955 96.7081 95.8312 97.2217C97.571 96.2392 98.759 97.1659 100.133 95.4297C98.5451 95.2399 99.8513 92.9845 101.017 93.593C100.516 93.9056 100.437 94.3243 100.414 94.8044C101.388 94.4639 101.597 95.3292 102.188 95.8651C101.169 96.2894 101.873 97.2943 101.383 98.2266C100.465 98.5225 100.414 99.4715 100.172 100.354C102.053 100.169 103.719 101.197 105.358 99.84C104.998 102.319 107.216 99.7786 108.297 99.5553C108.449 99.9349 108.562 100.231 108.742 100.683C109.93 100.214 111.343 98.2992 112.283 98.8909C113.522 97.9475 115.33 98.1205 116.005 96.7807C115.527 96.7193 115.172 96.6746 114.631 96.602C118.179 93.4088 121.934 89.9531 125.932 87.5861C125.6 87.1562 125.358 86.8436 125.053 86.4584C126.821 87.0836 126.348 87.3404 128.004 85.8052C129.13 88.0048 125.346 87.3684 125.414 89.0655C126.444 89.0543 126.883 87.8429 127.953 87.9434C127.874 88.1388 127.807 88.2895 127.722 88.4905C127.998 88.4346 128.173 88.3956 128.415 88.3453C128.55 89.339 128.263 89.3335 127.356 89.3502C128.167 90.4165 127.182 91.3823 127.373 92.4653C128.601 92.0578 128.268 91.1422 129.366 90.7905C129.62 91.3879 129.181 92.2643 130.177 92.2476C131.647 91.2371 130.369 90.69 131.286 89.4786C132.615 89.5456 132.058 88.8031 132.869 88.6747C133.128 90.2043 131.737 91.1366 131.303 92.5379C134.603 93.3753 132.086 94.1736 132.328 96.5965C132.953 95.7591 133.426 94.8826 133.876 94.0284C134.327 94.2406 134.727 94.7151 135.295 94.3187C134.884 93.928 134.394 93.9112 133.882 94.0117C134.693 92.4709 135.436 90.9915 136.838 89.8917C136.641 89.5847 136.489 89.3502 136.286 89.0376C137.688 89.2497 137.17 87.8206 138.437 87.9769C138.358 88.189 138.285 88.3956 138.212 88.6021C140.171 87.7591 138.37 85.3307 140.34 84.4096C140.25 85.1241 140.368 85.487 140.965 85.3921C140.858 85.0348 140.915 84.7445 141.326 84.5547C141.528 85.3921 140.594 85.4703 140.751 86.5589C141.906 85.8052 143.887 85.554 142.88 83.9574C144.704 83.6057 143.645 78.4473 143.139 80.3956C141.973 76.7055 143.949 76.8395 146.151 78.8883C147.17 77.314 143.876 77.8835 146.151 76.4711L146.128 76.499ZM25.3147 21.9455C25.2584 22.152 25.2078 22.3586 25.1515 22.5651C24.701 22.5986 24.8756 21.6831 25.3147 21.9455ZM23.6763 23.302C23.6143 23.3746 23.5468 23.4528 23.4792 23.5309C23.147 23.3188 23.5637 22.9336 23.6763 23.302ZM16.2947 35.3159C16.1821 35.1819 16.0695 35.0423 15.9512 34.9083C16.1877 34.5287 16.6325 35.1986 16.2947 35.3159ZM4.67332 59.712C4.25666 59.2207 4.66206 58.7015 5.07308 59.1984C4.9661 59.3324 4.86475 59.4663 4.67332 59.712ZM23.1245 86.6873C23.6369 86.8157 23.9972 86.905 24.5715 87.0446C23.406 88.8701 22.9499 89.0208 23.1245 86.6873ZM24.6391 86.7654C24.0648 86.3244 24.2618 85.9671 24.6391 85.5205C24.9262 85.9783 24.8699 86.3356 24.6391 86.7654ZM26.5535 77.1019C25.7652 77.1186 25.8609 76.5213 26.621 76.8283C26.5985 76.9177 26.576 77.0126 26.5535 77.1019ZM28.5973 98.3047C28.2764 97.8916 28.5748 97.2943 28.952 97.6125C28.8901 97.7688 28.8057 97.914 28.5973 98.3047ZM29.0309 47.218C28.6255 46.2467 27.8485 45.9508 29.4025 45.3479C29.8473 46.2076 29.9036 46.6989 29.0309 47.218ZM45.41 22.0962C44.9708 22.4088 44.6949 22.3642 44.5598 21.7221C44.9427 21.8896 45.1792 21.9901 45.41 22.0962ZM42.3808 20.8289C42.0148 20.6949 41.6714 20.5665 41.2434 20.4102C41.6545 18.9811 43.4956 19.6007 42.3808 20.8289ZM41.0858 26.473C41.0689 26.6349 41.052 26.8023 41.0295 26.9642C40.7817 27.0257 40.793 26.3111 41.0858 26.473ZM34.8247 29.5378C34.7177 29.9175 34.6051 30.2636 34.0983 29.8672C34.3404 29.7556 34.5825 29.6439 34.8247 29.5378ZM31.4126 34.1156C31.5702 34.3333 31.7335 34.5566 31.8968 34.7855C31.2099 35.8183 30.6412 34.2719 31.4126 34.1156ZM27.4093 38.9055C27.1615 39.1121 27.0827 39.1176 26.8969 38.8888C27.0883 38.6487 27.1672 38.7101 27.4093 38.9055ZM15.253 40.7534C13.5076 40.1114 15.0503 42.3779 15.253 40.7534V40.7534ZM13.7103 35.4164C13.3837 35.7067 13.074 35.9858 12.6799 36.3319C12.3984 35.7401 13.181 34.685 13.7103 35.4164ZM14.1382 50.2494C13.9543 51.0905 13.5057 51.3511 12.7925 51.031C12.9445 50.2773 13.6934 50.5285 14.1382 50.2494ZM12.2069 51.5948C11.8409 51.3883 11.8691 51.2878 12.0943 50.8803C12.4434 51.2096 12.5335 51.2822 12.2069 51.5948ZM11.261 42.1769C11.0133 42.6682 10.7937 43.0981 10.5516 43.5726C9.67883 42.8971 10.2869 41.8811 11.261 42.1769ZM10.2813 44.4826C10.895 44.1811 11.4299 43.9243 11.9198 43.6842C11.9986 44.4323 11.7509 45.0911 10.8106 45.3088C11.0358 46.1797 10.9232 46.3248 9.93784 46.4644C10.0504 45.7945 10.1687 45.1246 10.2757 44.4826H10.2813ZM8.42323 46.6877C8.37256 46.0513 8.46265 45.8615 9.36916 44.851C9.96036 46.0289 9.3579 46.2802 8.42323 46.6877ZM9.23965 55.7762C9.16083 55.7092 9.08763 55.6478 9.0088 55.5808C9.44798 54.9556 9.70699 55.2012 9.23965 55.7762ZM8.96376 47.5307C8.70476 47.5586 8.32188 47.9047 8.23743 47.5474C8.43449 47.3632 8.9525 47.1287 8.96376 47.5307ZM8.25995 43.4553C8.71039 43.5837 9.06511 43.6898 9.50429 43.8182C8.86804 44.717 7.58992 44.8622 8.25995 43.4553ZM5.39402 50.1768C5.64739 50.0429 5.80505 49.9535 5.99086 49.8531C5.78253 49.5907 5.5742 49.3339 5.25326 48.9375C5.69807 48.7309 6.05279 48.5635 6.67215 48.2732C6.1654 49.1552 7.24646 49.8642 6.30053 50.6179C6.00212 50.4727 5.73748 50.3443 5.39402 50.1768ZM6.64962 59.5054C7.34218 59.4663 6.90863 59.8627 7.03813 60.1418C7.15637 59.7957 7.26898 59.4496 7.35344 59.2095C8.25432 58.9751 9.10452 58.7518 10.2194 58.4615C9.34663 62.1516 5.14065 62.9667 6.65525 59.511L6.64962 59.5054ZM10.6473 58.7797C10.7374 58.2103 11.2441 58.0986 11.52 57.7916C11.5238 58.1191 11.2329 58.4484 10.6473 58.7797ZM11.9423 55.4078C12.4772 56.4741 10.8838 56.8872 11.52 57.786C10.377 58.227 10.2137 57.3003 9.72951 56.4461C11.0696 55.4134 11.4862 52.047 13.7215 52.382C14.4085 54.174 11.4243 54.2633 11.154 56.0944C11.5763 55.9995 11.6214 55.6143 11.9423 55.4022V55.4078ZM14.279 55.7595C13.9355 55.3408 13.654 55.0002 13.3387 54.6095C14.0143 53.5934 15.2305 54.5983 14.279 55.7595ZM14.2621 52.1419C14.0763 51.1706 14.8364 50.3108 15.8273 50.6737C15.2699 51.1985 14.7744 51.6618 14.2621 52.1419ZM17.6178 54.8607C17.3701 54.2689 17.86 54.2075 18.2597 53.8558C18.2597 54.4978 18.1696 54.8104 17.6178 54.8607ZM33.2087 54.5871C32.961 54.0121 33.2256 53.8725 33.7323 53.906C33.5803 54.107 33.4283 54.3024 33.2087 54.5871ZM35.4553 100.683C35.1625 99.7227 35.8719 99.8511 36.3111 99.4157C36.3787 100.376 35.7199 100.208 35.4553 100.683ZM38.6816 101.543C38.293 102.084 37.9496 102.559 37.5104 103.167C36.4294 102.017 36.9136 101.587 38.6816 101.543ZM37.8708 103.921C38.0566 103.212 38.4394 103.028 39.1095 103.028C38.9631 103.848 38.7491 103.954 37.8708 103.921ZM39.132 105.713C40.0104 105.986 38.9406 106.829 38.7379 107.471C37.4147 106.545 38.8336 104.245 39.9709 103.508C40.382 104.541 39.3122 104.948 39.132 105.713ZM44.3515 39.7038C43.8898 39.2795 44.1882 38.872 44.633 39.2516C44.5598 39.3689 44.4866 39.4805 44.3515 39.7038ZM45.4325 38.2691C45.1341 38.0179 45.2467 37.9509 45.4776 37.7555C45.7141 37.962 45.6634 38.0514 45.4325 38.2691ZM44.0756 28.2594C43.079 28.0082 43.1071 29.0354 42.6229 29.4094C40.8718 30.8442 38.7773 31.5197 37.685 33.9481C37.3359 34.7353 38.3775 34.4673 38.0735 35.3884C34.8866 34.0598 30.1401 39.3019 28.9689 41.9648C27.719 40.6026 26.0017 43.3493 25.1289 44.4602C25.4949 44.583 25.7032 44.6556 25.9172 44.7282C24.8925 45.4539 22.5558 46.576 21.3734 46.5258C20.4331 48.53 18.9804 51.3994 16.458 51.4943C18.4174 49.6242 17.6629 47.7875 18.789 48.0889C19.8532 47.7316 19.2 45.56 20.6696 45.8559C20.3374 45.3758 20.0953 45.0241 19.78 44.5719C22.0603 44.0918 22.7416 41.6019 25.0276 41.0046C24.7461 41.4568 24.4702 41.9145 24.1886 42.3667C25.7652 41.9871 25.3654 40.1058 26.3789 40.3402C26.3789 40.3458 26.3789 40.357 26.3789 40.3626C26.3789 40.357 26.3789 40.3514 26.3789 40.3458C27.7133 40.3514 27.1784 39.0786 28.2539 38.6208C28.7268 37.8113 28.6198 35.9746 29.577 35.6787C29.4982 36.1421 29.4419 36.4268 29.3293 36.8623C30.4047 36.5273 34.7177 34.4115 32.7526 33.0437C34.363 32.9377 34.6389 30.0849 36.6377 30.7102C36.4575 31.0731 35.6017 30.7604 35.8494 31.609C37.257 31.4471 37.837 29.9175 39.2333 29.7388C39.0813 29.2922 38.98 28.9852 38.7998 28.466C39.8921 29.0187 40.5678 28.8065 40.7592 27.8575C43.2423 28.0417 41.5925 26.2999 41.3617 24.7814C42.4484 25.0438 42.1331 23.8994 42.7918 23.3467C42.6961 24.212 42.9101 24.7479 43.6702 24.9098C43.4562 25.3174 43.2873 25.6412 43.0959 25.9984C44.678 26.2273 44.0305 23.7096 44.115 22.4702C44.5711 23.4472 46.857 22.928 45.3987 24.0613C45.6803 24.2064 45.9562 24.3516 46.294 24.5302C45.4776 25.9091 45.0778 27.0926 44.0643 28.265L44.0756 28.2594ZM50.1002 31.4304C50.1227 30.6153 50.7083 30.5818 51.1137 30.2301C51.795 31.1289 50.866 31.0954 50.1002 31.4304ZM58.1744 22.2358C58.7881 22.2358 59.3793 21.7891 59.3511 22.3921C59.0696 22.7438 58.7656 22.727 58.1744 22.2358ZM62.2565 108.42C63.9062 106.584 64.8352 103.083 67.2001 102.302C66.2541 103.988 64.0244 107.896 62.2565 108.42ZM71.7776 51.8126C71.9297 51.6283 72.0817 51.4441 72.3238 51.1538C72.611 51.8293 72.1324 52.1587 71.7776 51.8126ZM76.9464 13.7557C76.5805 13.6943 76.8789 12.8346 77.2449 13.1807C77.1435 13.3705 77.0478 13.5659 76.9464 13.7557ZM85.212 105.953C85.4541 105.674 85.6963 105.4 85.9384 105.121C86.4001 105.261 85.4598 106.36 85.212 105.953ZM91.9461 96.3899C91.6083 96.2894 91.3662 96.2168 90.8876 96.0717C91.3155 95.6809 91.5463 95.4743 91.9461 95.1115V96.3899ZM96.7377 95.1729C96.3435 94.7598 97.0361 94.0899 97.312 94.503C97.1374 94.7095 96.9629 94.9105 96.7377 95.1729ZM97.5428 93.0906C98.0102 93.1576 98.3367 93.2022 98.6577 93.2469C98.2635 93.6898 97.8919 93.6377 97.5428 93.0906ZM109.879 69.5877C110.341 69.2639 110.369 68.4935 111.349 68.4432C110.791 68.8508 110.347 70.1068 109.879 69.5877ZM111.805 67.3211C111.749 67.243 111.687 67.1592 111.602 67.042C111.94 66.7182 112.21 67.1815 111.805 67.3211ZM113.719 97.339C113.832 97.2664 113.95 97.1938 114.063 97.1212C114.085 97.3501 113.843 97.646 113.719 97.339ZM119.22 15.2965C119.089 15.9143 118.759 16.2716 118.229 16.3684C118.595 15.972 118.888 15.6538 119.22 15.2965ZM118.077 86.5031C118.072 85.7327 118.623 85.7271 119.068 85.5819C119.023 86.1569 118.607 86.3412 118.077 86.5031ZM118.578 72.2729C118.73 71.8654 118.826 71.5974 118.927 71.3239C119.474 71.5416 119.215 72.1501 118.578 72.2729ZM119.71 84.5212C122.559 78.5255 123.511 85.1576 119.113 85.5373C119.299 85.1967 119.203 84.6999 119.71 84.5212ZM121.653 88.3732C119.62 87.6363 121.99 90.5951 121.653 88.3732V88.3732ZM121.72 88.3342C122.036 88.0215 122.351 87.7145 122.661 87.4019C122.796 88.3062 122.165 88.2002 121.72 88.3342ZM123.184 81.5178C123.06 80.8106 123.24 80.2914 123.725 79.9602C122.694 79.0167 124.502 79.1116 124.862 79.6476C125.189 80.552 124.276 81.7132 123.179 81.5233L123.184 81.5178ZM136.236 70.7879C135.532 71.3853 135.008 71.8207 134.378 72.3511C134.265 72.2841 134.023 72.1501 133.708 71.9715C134.417 71.3406 135.014 70.7433 136.236 70.7879ZM134.794 85.9001C134.963 86.1123 135.076 86.2574 135.211 86.4249C134.834 86.5198 134.4 87.0725 134.147 86.6873C134.349 86.4416 134.552 86.196 134.794 85.9057V85.9001ZM134.31 74.6623C134.496 74.2548 134.614 74.1375 135.053 74.5171C134.766 74.8018 134.518 75.081 134.31 74.6623ZM134.552 73.2555C134.592 73.8472 134.287 73.8305 133.837 73.4788C134.603 73.4676 134.749 72.6637 135.566 72.8647C135.307 73.4062 134.935 73.3392 134.552 73.2555ZM133.685 66.4391C133.437 66.2102 133.184 65.9869 132.75 65.5905C133.51 65.6072 134.226 65.9478 133.685 66.4391ZM129.603 67.1425C129.338 67.3714 129.158 68.1194 128.803 67.7454C129.068 67.4328 129.169 66.6624 129.603 67.1425ZM136.866 29.4932C136.894 29.8616 136.917 30.0849 136.934 30.3138C136.393 30.0961 136.5 29.8616 136.866 29.4932ZM135.076 19.3942C134.552 21.2365 136.483 20.9852 135.076 19.3942V19.3942ZM137.795 22.9503C139.045 25.362 136.072 25.4793 136.624 27.7514C132.491 27.8742 137.339 24.787 137.795 22.9503ZM134.282 41.5014C134.597 41.6577 133.95 42.3444 133.798 41.9257C133.961 41.7861 134.119 41.641 134.282 41.5014ZM131.298 44.1253C131.765 44.7561 131.45 45.32 131.472 45.9564C132.908 45.0855 139.49 36.2984 138.432 39.6982C136.945 40.932 129.259 51.165 130.318 47.0227C130.318 47.0227 130.318 47.0227 130.312 47.0227C130.521 46.7882 130.735 46.5537 131.016 46.2411C130.588 46.0848 130.318 45.9843 129.896 45.828C130.386 45.2306 130.808 44.7226 131.298 44.1253ZM130.29 47.0282C129.699 47.1957 129.113 47.3576 128.454 47.5418C128.781 46.9054 130.605 45.4372 130.29 47.0282ZM126.27 68.5102C126.512 68.9122 127.306 69.2527 126.788 69.61C126.303 69.2583 125.555 69.0964 126.27 68.5102ZM126.731 77.0126C126.467 77.1521 126.377 77.208 126.258 76.9344C126.472 76.739 126.551 76.7502 126.731 77.0126ZM125.74 86.2574C125.645 86.0509 125.549 85.8387 125.425 85.5819C125.774 85.6638 125.879 85.889 125.74 86.2574ZM125.999 85.3586C125.926 85.1576 125.859 84.9567 125.757 84.672C125.994 84.6329 126.196 84.5994 126.546 84.5435C126.354 84.9343 126.45 85.4591 125.999 85.3586ZM127.227 84.0244C126.9 83.6727 126.782 83.5387 127.204 83.3712C127.559 83.4773 127.407 83.6894 127.227 84.0244ZM125.093 80.7362C126.332 79.843 127.829 79.4801 128.009 77.7718C128.753 77.9895 129.254 77.716 129.35 77.0907C130.217 77.0237 130.684 76.7781 131.45 76.5325C129.67 78.3077 127.779 80.7585 125.093 80.7362ZM132.39 74.7516C132.413 74.8521 132.441 74.9526 132.463 75.0531C130.29 76.7111 129.918 74.7851 132.39 74.7516ZM133.584 89.6405C133.882 89.4451 134.175 89.2553 134.501 89.0432C134.67 89.9308 134.631 89.9643 133.584 89.6405ZM131.973 87.8206C132.221 87.1693 132.542 86.9813 132.936 87.2567C133.815 87.9936 133.297 86.3635 135.74 88.1109C133.432 89.2665 133.758 87.212 131.973 87.8206ZM136.005 83.2316C136.737 82.4389 137.626 83.0865 137.384 83.8066C136.742 84.3314 136.393 83.7285 136.005 83.2316ZM137.266 86.905C136.14 85.3698 136.793 85.0962 138.386 85.2135C137.891 85.9615 137.581 86.4193 137.266 86.905ZM140.723 83.9406C140.622 83.2875 140.92 83.1479 141.511 83.3712C141.264 83.5498 141.01 83.7341 140.723 83.9406ZM140.993 81.6629C141.449 81.6182 141.697 81.5959 141.939 81.5736C142.086 82.1933 141.444 82.3049 140.993 81.6629ZM141.202 72.2059C141.281 71.4802 141.962 71.095 142.035 71.8654C141.804 71.9603 141.562 72.0552 141.202 72.2059ZM142.857 81.7913C143.101 82.264 142.932 82.6641 142.35 82.9916C142.08 82.3607 142.851 82.2547 142.857 81.7913ZM143.668 75.1703C143.961 74.8353 144.297 74.8093 144.676 75.0921C144.293 75.1201 144.023 75.1424 143.668 75.1703ZM21.3509 46.5035C21.3509 46.5035 21.3509 46.5202 21.3565 46.5258C21.3565 46.5258 21.3678 46.5258 21.3734 46.5258C21.3734 46.5146 21.3846 46.5035 21.3903 46.4923C21.379 46.4923 21.3621 46.4979 21.3509 46.5035ZM28.7381 18.7522C29.3743 18.9476 29.943 19.1206 30.5117 19.2993V20.7284C31.0522 20.4381 31.559 20.2818 31.8855 19.9469C32.0826 19.7459 31.9925 19.2714 32.0432 18.8415C32.8596 19.3719 33.2087 18.6517 33.7042 18.2665C34.3517 17.7585 34.2898 17.1667 33.9181 16.5415C35.0668 15.1123 36.1872 13.7167 37.4428 12.1479C37.3696 11.7739 37.0825 11.277 37.4428 10.6574C37.7413 11.0426 37.9834 11.3552 38.1861 11.612C38.1523 10.6964 38.1241 9.77531 38.0904 8.80951C36.6264 9.43477 35.917 11.0649 34.2391 11.0928C33.7211 11.6846 33.2988 12.3545 33.0342 13.0691C32.899 13.4319 33.113 13.9176 33.1749 14.4145C33.0567 14.4591 32.8765 14.5206 32.702 14.5875C32.5894 15.1849 33.0285 15.9162 32.3416 16.3796C31.3056 16.0167 32.1389 15.0174 31.5196 14.3866C31.086 14.8164 30.7313 15.2686 30.2808 15.5924C29.5264 16.1339 29.3743 16.7871 29.6953 17.6077C29.7291 17.6971 29.6671 17.8199 29.6446 17.9818C29.3687 17.9483 29.1266 17.9204 28.9126 17.8925V17.1891C28.0061 17.457 27.9723 17.5687 28.4509 18.1772C28.603 18.3726 28.6762 18.6238 28.7381 18.7522ZM134.293 95.7981C134.592 95.9433 134.817 96.0494 135.205 96.2336C134.867 96.5741 134.586 96.87 134.282 97.1771C134.693 97.5232 134.986 97.3445 135.138 96.9091C135.594 95.6139 136.461 94.6035 137.283 93.5204C137.812 92.8226 138.358 91.935 138.167 90.9636C138.724 90.6119 139.304 90.3551 139.738 89.9475C140.166 89.5456 140.487 89.0152 140.785 88.5016C141.055 88.0327 141.236 87.5191 141.472 86.9832C140.549 86.8436 139.974 87.0836 139.563 87.7591C138.724 89.1381 137.897 90.5337 136.984 91.868C136.427 92.683 136.185 93.7158 135.335 94.3355C135.29 94.6314 135.324 94.9887 135.171 95.212C135.008 95.452 134.653 95.5693 134.304 95.7981H134.293ZM29.7572 19.6845C29.4475 19.7403 29.0759 19.8966 28.9971 19.8017C28.6198 19.3551 28.1694 19.4835 27.7753 19.584C27.5726 19.3049 27.4205 19.0871 27.2629 18.8694C27.0827 19.076 26.8969 19.2825 26.6717 19.5449C27.55 20.2483 28.3271 20.8624 29.059 21.443C30.0444 21.002 29.5601 20.2483 29.7572 19.6789V19.6845ZM135.521 46.0122C135.16 46.4309 134.822 46.8719 134.501 47.3241C134.423 47.4358 134.428 47.6144 134.4 47.7651C134.473 47.8098 134.552 47.8545 134.625 47.8935C135.87 46.4867 137.114 45.0855 138.364 43.6787C138.263 43.5893 138.161 43.5 138.06 43.4107C137.604 43.8573 137.148 44.3039 136.697 44.7617C136.298 45.1692 135.898 45.5767 135.526 46.0122H135.521ZM19.8757 22.0906C19.8757 22.0906 19.8644 22.1129 19.8588 22.1241C19.8757 22.1241 19.8926 22.1241 19.9038 22.1241L19.87 22.0962L19.8757 22.0906ZM19.6223 22.5763C19.7462 22.4814 19.7856 22.286 19.8588 22.1241C19.307 22.1799 18.7608 22.2413 18.1753 22.3027C18.5863 23.2239 17.6178 23.369 17.3082 23.905C16.9816 23.8156 16.7001 23.7375 16.3059 23.6258C16.2271 24.0892 16.1595 24.4632 16.0695 24.988C16.4523 24.8428 16.6944 24.8038 16.8634 24.6754C17.798 23.9887 18.7158 23.2909 19.6279 22.5707L19.6223 22.5763ZM117.402 95.4855C117.852 95.4464 118.038 95.4688 118.19 95.4074C119.186 95.0277 119.693 94.0564 120.532 93.4869C120.729 93.353 120.836 93.0962 121.112 92.7277C119.389 93.1296 118.59 94.3299 117.396 95.4855H117.402ZM121.675 92.242C122.97 91.7284 124.586 90.4556 124.963 89.6517C124.057 89.6182 122.762 90.6398 121.675 92.242ZM19.0311 60.2033C20.4612 59.8181 21.6605 58.3722 21.013 57.4678C20.6696 57.8585 20.2811 58.2326 19.9714 58.6624C19.6392 59.1146 19.3802 59.6171 19.0311 60.2033ZM60.9952 11.411C60.8601 12.1256 60.7531 12.695 60.6518 13.2589C60.8657 13.672 61.0741 14.0739 61.3218 14.5596C61.7891 13.0858 61.8905 12.5834 60.9952 11.411ZM14.2958 59.4887C13.3612 59.2877 12.8826 59.5892 12.5279 60.2312C12.3139 60.6275 11.9761 60.9569 11.5594 61.4817C12.9164 61.1244 13.4738 60.2423 14.2902 59.4887H14.2958ZM16.7057 59.846C17.2913 59.176 17.2688 59.0923 16.3566 58.5564C15.4839 59.5724 15.4726 59.6338 16.0582 60.4601C16.2778 60.2535 16.5143 60.0637 16.7057 59.846ZM20.2585 55.1677C20.4612 55.4078 20.6639 55.6478 20.8892 55.9102C21.2551 55.4803 21.5648 55.1175 21.959 54.6541C21.1857 54.4606 20.6189 54.6318 20.2585 55.1677ZM144.208 80.9316C144.642 81.1158 144.98 81.261 145.526 81.4898C145.323 80.7083 145.38 80.0328 144.873 79.3349C144.603 79.9825 144.405 80.4515 144.203 80.9316H144.208ZM4.43121 65.7468C5.00552 65.1551 5.05619 64.3902 4.49314 63.698C4.16657 64.4349 3.49654 65.0825 4.43121 65.7468ZM40.9394 114.254C40.6016 114.578 40.4608 115.103 40.1962 115.611C40.686 115.544 41.0238 115.499 41.4405 115.443C41.2209 115.282 41.0689 115.17 40.9112 115.053C41.2603 114.455 41.5869 113.897 41.9698 113.233C41.1928 113.255 41.2547 113.942 40.9394 114.243V114.254ZM19.8757 22.0906L19.9095 22.1185C19.9095 22.1074 19.9151 22.0962 19.9207 22.085C19.9038 22.085 19.8926 22.085 19.8757 22.085V22.0906ZM21.2664 21.1695C21.1425 20.868 21.0243 20.5665 20.8892 20.2316C20.0953 20.6559 20.2079 21.4765 19.9263 22.0906C20.5457 22.0571 20.9229 21.6719 21.272 21.1695H21.2664ZM19.8588 56.1335C19.4984 56.1614 19.1324 56.1893 18.7271 56.2228C18.6876 56.7476 18.3667 57.1942 18.7608 57.6408C19.1719 57.1998 19.5773 56.7644 19.9883 56.3233C19.9432 56.2619 19.9038 56.2005 19.8588 56.1391V56.1335ZM18.7834 57.6687C18.7834 57.6687 18.7665 57.6464 18.7608 57.6352L18.789 57.6632L18.7834 57.6687ZM11.6439 83.8736C12.8544 83.4047 12.877 83.3321 12.1675 82.2379C11.9817 82.8185 11.8353 83.2819 11.6439 83.8736ZM33.5071 23.3467C33.3607 22.7047 33.2425 22.1911 33.0792 21.4988C32.8652 21.8896 32.7245 22.1408 32.5668 22.4256C32.8371 22.7103 32.8934 23.1569 33.5071 23.3467ZM33.8956 21.4319C33.9519 21.5268 34.3799 21.5379 34.4812 21.4319C34.8528 21.0411 34.5994 20.7564 34.1715 20.494C33.8281 20.7284 33.6591 21.0411 33.8956 21.4319ZM55.2578 118.179C55.7251 117.9 56.0854 117.682 56.5978 117.381C55.5731 116.884 55.5055 116.928 55.2578 118.179ZM138.448 34.6125C138.561 33.9984 139.941 34.6236 139.575 33.4457C139.011 33.6969 138.499 33.909 138.448 34.6125ZM141.112 39.3633C140.779 39.8434 140.504 40.2342 140.183 40.6975C140.686 40.6789 140.995 40.2342 141.112 39.3633ZM144.591 71.5695C143.972 71.3574 143.719 71.8375 143.279 72.245C143.617 72.3567 143.876 72.446 144.118 72.5241C144.304 72.1389 144.451 71.8486 144.591 71.5583C144.389 71.2904 144.591 70.6484 143.949 70.7879C144.163 71.0447 144.377 71.3015 144.591 71.5639V71.5695ZM122.976 18.0879L122.998 18.1102C122.998 18.0879 122.987 18.0655 122.981 18.0432C122.981 18.0599 122.976 18.0711 122.97 18.0879H122.976ZM123.556 15.6706C123.302 16.3461 123.072 16.8876 122.908 17.4514C122.858 17.6245 122.942 17.8422 122.981 18.0432C123.072 17.2672 123.956 16.6922 123.556 15.6706ZM18.7834 57.6687L18.7552 57.6408C18.7439 57.6632 18.7327 57.6855 18.7158 57.7078C18.7383 57.6967 18.7608 57.6799 18.7834 57.6687ZM18.7158 57.7078C18.2372 57.9925 17.753 58.2772 17.2406 58.5787C17.8262 58.8913 18.2147 58.6401 18.7158 57.7078ZM130.785 94.0675C130.785 94.0675 130.797 94.0675 130.808 94.0675H130.791H130.785ZM130.149 94.2127C130.081 94.436 130.205 94.7095 130.25 94.9663C130.335 94.9663 130.419 94.9663 130.504 94.9663C130.6 94.6704 130.69 94.369 130.785 94.0731C130.554 94.1178 130.177 94.1122 130.149 94.2183V94.2127ZM29.0647 26.5567C29.5714 26.5232 29.9149 26.1994 30.1513 25.6858C29.7685 25.8924 29.3912 26.0989 29.0084 26.3111C29.0252 26.3948 29.0478 26.473 29.0647 26.5567ZM70.4489 107.885C70.5558 107.912 70.6628 107.94 70.7698 107.968C70.843 107.661 70.9162 107.354 70.9894 107.047C70.5784 107.254 70.263 107.477 70.4489 107.885ZM57.2678 117.42C57.8196 117.297 58.2701 117.397 58.439 116.733C57.8928 116.649 57.6113 116.878 57.2678 117.42ZM62.4929 19.1206C62.3691 19.4723 62.2452 19.8185 62.127 20.1702C62.6056 19.9413 62.8533 19.6287 62.4929 19.1206ZM24.183 97.4953C23.9184 97.4339 23.6537 97.3724 23.3159 97.2887C23.6481 97.9586 23.6537 97.9642 24.183 97.4953ZM24.183 97.4953C24.183 97.4953 24.2168 97.5008 24.2281 97.5064L24.1999 97.4785C24.1943 97.4841 24.1886 97.4897 24.1774 97.4953H24.183ZM131.253 94.7765C131.568 94.4565 131.637 94.114 131.461 93.7493C131.382 94.1513 131.32 94.4639 131.253 94.7765ZM135.307 94.3578C135.307 94.3578 135.324 94.3411 135.335 94.3355C135.335 94.3355 135.335 94.3243 135.335 94.3187C135.318 94.3299 135.307 94.3355 135.29 94.3467C135.29 94.3467 135.301 94.3522 135.307 94.3578ZM140.419 31.8546C140.07 31.9942 139.8 32.1003 139.338 32.2845C139.927 32.4073 140.288 32.264 140.419 31.8546ZM30.6468 104.507V103.899C30.4047 104.06 30.157 104.228 29.7291 104.507H30.6468ZM30.6468 103.899C30.6468 103.899 30.6693 103.887 30.675 103.876C30.675 103.859 30.6693 103.843 30.6637 103.826C30.6637 103.832 30.6525 103.837 30.6468 103.843V103.899ZM22.888 94.4416C22.8261 94.4304 22.7303 94.3857 22.7134 94.4025C22.5614 94.5867 22.4263 94.7877 22.2855 94.9831C22.3925 95.0277 22.4939 95.0724 22.6008 95.1171C22.6966 94.8882 22.7923 94.6649 22.888 94.4416ZM71.3723 109.191C71.2991 109.303 71.4511 109.565 71.5018 109.76C71.5918 109.721 71.6876 109.688 71.7776 109.649C71.7608 109.543 71.7326 109.437 71.7213 109.33C71.6932 109.051 71.5243 108.962 71.3723 109.191ZM135.763 92.8673C135.92 92.6663 136.078 92.4709 136.236 92.2699C136.174 92.2085 136.106 92.1527 136.044 92.0913C135.853 92.2643 135.667 92.443 135.476 92.616C135.571 92.6998 135.667 92.7835 135.763 92.8673ZM4.14968 35.1037C4.06522 35.0646 3.9864 35.0032 3.96387 35.02C3.87942 35.0758 3.81185 35.1596 3.73865 35.2321C3.81185 35.2656 3.90757 35.3494 3.95261 35.327C4.03144 35.288 4.08211 35.1875 4.14968 35.1093V35.1037ZM116.692 96.0884C116.585 96.1498 116.512 96.2671 116.428 96.362C116.506 96.4178 116.591 96.4736 116.737 96.5797C116.81 96.4401 116.889 96.3341 116.912 96.2224C116.917 96.1889 116.726 96.0661 116.692 96.0884ZM29.3405 15.3021C29.3237 15.2016 29.273 15.1123 29.2336 15.0174C29.1716 15.0453 29.0478 15.0844 29.0534 15.0956C29.0759 15.2016 29.121 15.3021 29.1604 15.4082C29.2336 15.3635 29.3405 15.3245 29.3405 15.3021ZM27.2066 28.8903C27.1728 28.8903 27.139 28.8847 27.1052 28.8791L27.139 28.9238C27.1615 28.9126 27.1841 28.9014 27.201 28.8847L27.2066 28.8903ZM27.5444 28.6949C27.4318 28.7619 27.3192 28.8233 27.2066 28.8903C27.3417 28.9014 27.4769 28.9182 27.612 28.9293C27.5895 28.8512 27.5669 28.773 27.5444 28.6949ZM139.237 32.5915C138.769 32.4911 138.482 32.4241 138.195 32.3627C138.415 32.6585 138.651 32.8986 139.237 32.5915ZM2.13396 37.6885C2.16211 37.6215 2.19027 37.5545 2.22968 37.4484C2.13959 37.4094 2.0495 37.3703 1.95941 37.3312C1.93689 37.3982 1.87496 37.4931 1.89748 37.521C1.95378 37.5936 2.0495 37.6327 2.13396 37.6829V37.6885ZM12.1844 62.5759C12.2463 62.6038 12.3083 62.6373 12.4096 62.6875C12.4603 62.615 12.5166 62.5368 12.5729 62.4642C12.511 62.4307 12.4265 62.3526 12.3927 62.3749C12.3083 62.4196 12.252 62.5089 12.1844 62.5815V62.5759ZM107.436 100.923C107.503 100.979 107.571 101.085 107.644 101.085C107.74 101.085 107.835 101.012 107.942 100.962C107.773 100.823 107.706 100.733 107.678 100.744C107.588 100.783 107.514 100.862 107.436 100.923ZM130.78 94.0619H130.808C130.797 94.0508 130.791 94.0396 130.78 94.034C130.78 94.0452 130.78 94.0508 130.78 94.0564V94.0619ZM130.217 93.4423C130.447 93.6879 130.616 93.861 130.78 94.034C130.768 93.5818 130.729 93.5316 130.217 93.4423ZM20.7484 46.6542C21.0299 46.5816 21.1932 46.537 21.3509 46.4979C21.2946 46.3248 21.2383 46.1406 21.1256 45.7777C20.9567 46.1685 20.8835 46.3472 20.7484 46.6542ZM26.4352 41.2949C26.4183 40.9822 26.3958 40.6696 26.3789 40.357C26.317 40.6696 26.255 40.9767 26.1875 41.2837C26.2719 41.2837 26.3508 41.2893 26.4352 41.2949Z" fill="#FDEDAA"/>
<path d="M82.475 111.675C82.4186 111.686 82.3567 111.692 82.2948 111.703C82.2948 111.714 82.2891 111.72 82.2835 111.731C82.3398 111.709 82.4018 111.692 82.4693 111.675H82.475ZM95.9206 47.4022C95.9206 47.4022 95.9375 47.4189 95.9431 47.4301C95.9431 47.4301 95.9487 47.4245 95.9544 47.4189L95.9206 47.4022ZM83.4941 111.452C83.1675 111.53 82.8353 111.608 82.5031 111.669C82.8691 111.603 83.342 111.625 83.4941 111.452ZM148.999 61.8668C148.2 60.8117 143.87 61.0685 146.353 59.4439C146.978 61.0238 147.817 59.7287 148.605 60.5995C147.946 56.848 131.449 45.9284 138.065 51.7399C138.268 52.4433 139.197 52.8899 138.543 54.0288C139.743 53.1411 142.012 54.5535 141.832 55.8766C139.737 55.5305 138.47 54.587 137.693 52.8118C137.727 52.8006 137.761 52.7894 137.795 52.7783C137.75 52.7615 137.699 52.7392 137.654 52.7224C137.113 52.3261 134.112 53.2695 135.069 52.2088C133.561 51.6227 134.827 50.3945 133.127 49.9144C132.767 51.7455 128.572 48.435 127.254 47.6981C128.735 46.7546 130.143 50.1656 131.584 48.4964C132.986 48.4406 133.375 48.1838 135.362 48.7811C133.211 47.0784 128.808 41.8084 127.823 46.5313C126.984 45.0352 126.382 44.7895 124.76 44.2982C123.651 43.0924 122.497 45.3701 123.837 45.8279C124.225 46.0624 124.873 46.1461 124.67 46.7434C123.662 46.4476 123.521 46.7881 123.223 47.7316C122.26 44.5495 120.948 46.7211 120.881 48.6862C118.876 49.3226 119.563 47.7092 119.653 46.4197C121.607 47.3017 120.261 42.6514 121.438 45.4929C123.138 42.3946 117.728 42.9863 119.912 45.3813C118.065 44.248 113.719 46.5536 115.396 44.0414C113.026 42.6179 113.567 43.6116 112.136 44.3317C114.321 42.1992 108.516 40.6025 111.117 43.4776C109.102 43.2041 108.381 42.5174 107.069 41.3339C107.069 41.3339 107.08 41.3339 107.086 41.3339C103.922 38.3974 105.07 39.927 102.109 41.4734C102.784 38.1685 95.7404 41.7358 100.2 43.5837C99.6367 44.4043 99.4059 43.3325 98.8822 43.5278C99.0286 44.5104 98.3417 44.8844 97.4802 45.0854C97.88 46.6374 100.262 46.04 98.809 47.966C97.8688 46.8495 97.1706 49.0491 95.9375 47.4301C90.8081 51.7455 95.9206 44.8733 91.2867 46.9277C97.0129 51.5166 83.4152 45.0184 81.9288 44.4378C84.5301 44.5774 84.9355 42.5676 82.8691 43.8628C82.2723 42.2885 78.787 40.8761 78.1958 42.2606C77.5089 41.5125 76.9458 40.4686 75.2003 41.345C74.9188 39.5586 60.4709 39.2236 62.6331 42.8189C67.3007 46.0847 54.5646 44.622 66.4618 51.2207C62.0644 51.0756 50.291 43.1929 50.7583 49.7078C49.0861 48.4071 46.3778 48.9821 44.8857 49.4399C46.496 49.8641 42.915 50.6178 43.3655 49.2445C37.1776 49.7525 42.093 53.2919 41.6989 54.9276C34.4299 54.9834 44.2607 62.0343 38.8892 62.8214C43.433 67.7676 24.965 65.5513 24.5821 72.7641C25.9278 72.552 26.0517 70.6539 27.6113 71.1786C26.7611 72.926 21.0574 78.1458 24.7848 76.0858C24.1486 77.314 24.6778 79.6642 25.9166 78.0062C26.1812 78.1402 26.4852 78.3579 26.7161 78.6929C24.6778 79.2846 25.1114 81.406 23.3153 82.5784C25.376 81.607 25.4661 82.9692 27.555 82.0759C26.2093 85.66 26.0179 84.8896 23.2871 87.2343C26.6316 87.212 22.7747 90.1484 25.1733 91.5608C27.7577 89.9586 28.3264 91.3599 27.4593 93.5873C28.5347 94.8546 32.0932 93.2133 31.3781 95.692C47.1098 97.311 66.839 114.366 82.2835 111.709C82.565 110.827 83.0493 111.067 83.4884 111.145C83.556 111.295 83.5447 111.39 83.4884 111.457C85.3296 111.005 87.1089 110.257 88.8036 109.141C91.7653 110.09 93.8655 108.097 95.9431 108.242C96.0051 106.723 98.6063 107.873 99.4284 106.952C100.639 104.513 100.346 102.776 97.987 101.286C102.925 100.649 107.643 103.301 112.547 103.48C112.694 102.609 112.046 102.363 111.202 102.157C112.705 101.643 112.699 102.173 113.572 102.642C115.036 102.944 117.311 102.051 118.172 102.972C119.597 102 118.048 102.134 117.114 101.939C118.257 101.046 120.937 100.002 120.712 102.352C122.097 100.086 125.233 102.335 127.333 100.186C128.251 99.5496 130.537 100.108 130.768 98.9188C129.298 99.2146 128.91 96.7248 129.749 95.9153C131.669 97.0095 129.963 95.1114 129.951 94.2573C132.237 93.9725 130.633 90.4611 133.763 91.3487C132.575 87.5916 133.048 87.8819 137.902 88.8421C138.048 86.2071 140.075 86.503 142.389 86.7095C140.593 85.66 143.436 82.8073 145.159 84.2364C144.669 82.6119 143.11 82.4835 141.922 81.7075C141.911 80.5016 139.923 81.2162 140.024 79.7926C141.927 78.9329 143.633 79.3293 145.311 80.7975C145.385 79.7982 144.095 79.8261 144.394 78.9776C147.305 78.4751 141.95 74.3328 142.716 71.8932C140.818 71.8206 141.837 70.732 140.88 70.5366C140.013 68.4487 137.71 68.9009 135.289 66.947C140.655 67.0084 136.517 66.1487 138.814 65.0377C138.617 69.3029 143.042 67.0419 145.739 66.3329C145.919 64.6581 145.948 63.5472 145.948 61.9505C142.665 63.8933 146.404 60.46 148.988 61.878L148.999 61.8668ZM147.271 59.3323C146.955 59.8347 146.663 59.55 146.376 59.4216C146.618 58.5842 146.922 58.9248 147.271 59.3323ZM25.894 77.995C25.0269 77.8108 25.3591 77.7271 25.894 77.995V77.995ZM26.3557 77.2916C27.3974 75.3656 31.4288 75.321 30.1 77.9113C28.3715 78.531 27.7634 78.2518 26.3557 77.2916ZM28.2363 85.3306C28.1913 85.1911 28.1462 85.0515 28.1012 84.9119C30.3534 82.7849 31.9018 85.6823 28.2363 85.3306ZM28.5516 72.1556C30.0888 70.8381 32.4705 68.3259 34.0414 70.6874C33.4783 70.7599 32.9209 70.8325 32.0707 70.9442C36.1753 71.6253 29.4976 73.9086 28.5516 72.1556ZM31.8117 95.1393C31.9919 93.3584 35.494 94.8769 35.6798 95.6194C34.4242 95.4631 33.1686 95.3068 31.8117 95.1393ZM36.4231 95.7869C36.8472 95.6604 37.3089 95.7683 37.8082 96.1107C37.2564 95.9823 36.9129 95.8986 36.4231 95.7869ZM44.8407 59.7566C42.8756 58.8243 44.4803 57.9087 44.8407 59.7566V59.7566ZM44.8632 59.7677C45.8429 58.3721 46.5242 60.192 44.8632 59.7677V59.7677ZM49.1987 50.4726C48.9847 50.2158 48.7201 50.0428 49.1086 49.8976C49.4521 49.987 49.4014 50.1433 49.1987 50.4726ZM50.3642 50.668C50.0151 50.6066 50.1446 50.4894 50.2122 50.2605C50.4937 50.294 50.4824 50.4336 50.3642 50.668ZM51.8619 48.1614C53.6637 47.7986 55.0431 49.077 56.8224 48.9318C55.5724 49.6687 52.729 49.8306 51.8619 48.1614ZM63.4101 41.5404C63.883 40.9208 64.0857 41.2836 64.5531 41.7414C64.0013 41.6409 63.7029 41.5907 63.4101 41.5404ZM65.4934 47.2794C65.8087 47.2682 66.124 47.2515 66.4393 47.2403C66.6082 47.6143 65.4483 47.5194 65.4934 47.2794ZM64.7895 45.0631C65.5891 45.292 66.2591 45.292 66.5181 46.0735C65.8593 46.0177 65.2287 45.9116 64.7895 45.0631ZM67.1206 108.755C66.3267 108.471 66.428 108.035 66.6589 107.538C67.1806 107.68 67.3345 108.085 67.1206 108.755ZM68.3142 109.163C68.3518 108.731 68.6446 108.519 69.1926 108.526C68.8491 108.772 68.6183 108.94 68.3142 109.163ZM78.2127 42.2773C79.1135 42.0987 79.1192 42.1099 79.5077 42.8803C78.9334 42.9417 78.5561 42.6458 78.2127 42.2773ZM80.5268 43.3771C81.0504 43.5334 81.4671 43.6562 82.0696 43.8349C81.2025 44.2368 81.0842 44.1922 80.5268 43.3771ZM84.5019 109.637C84.7666 109.269 84.8904 109.308 85.3352 109.531C84.958 110.101 84.8904 109.956 84.5019 109.637ZM85.7406 109.442C86.101 109.33 86.3713 109.241 86.6415 109.157C86.5289 109.989 86.2305 110.011 85.7406 109.442ZM91.4162 108.052C92.1144 107.192 92.7225 107.89 93.5389 108.03C92.7225 108.331 92.1031 108.448 91.4162 108.052ZM94.8789 106.087C94.6199 105.908 94.2709 105.785 94.5974 105.501C94.8452 105.702 95.228 105.741 94.8789 106.087ZM97.6492 105.897C97.9025 105.914 98.1559 105.925 98.4093 105.942C98.5388 106.349 97.4014 106.439 97.6492 105.897ZM97.2663 105.065C97.0073 104.468 96.7877 103.96 97.6266 103.552C98.1109 104.568 99.0512 105.529 97.2663 105.065ZM102.12 46.5313C101.134 47.0226 101.241 45.7497 100.78 44.9849C101.681 45.3645 102.199 45.6716 102.12 46.5313ZM104.237 41.6298C104.693 41.2948 104.918 40.4965 105.385 40.7812C105.307 41.6744 105.301 42.2327 104.237 41.6298ZM107.052 41.345C104.096 42.0038 107.885 44.516 107.052 41.345V41.345ZM108.91 101.838C109.608 101.771 110.076 101.727 110.853 101.654C110.346 102.261 109.698 102.322 108.91 101.838ZM120.194 52.7727C119.09 54.9443 118.336 51.0979 116.675 50.9862C118.437 49.3115 124.062 53.4147 120.194 52.7727ZM140.869 70.5255C140.97 71.8318 140.052 71.1284 140.103 69.917C140.509 70.2408 140.694 70.3859 140.869 70.5255ZM140.644 85.8666C140.295 84.8059 139.912 84.309 141.381 84.6719C141.072 85.1743 140.897 85.459 140.644 85.8666ZM141.302 82.5895C141.556 82.651 141.944 83.0027 141.618 83.1869C141.477 82.9803 141.06 82.824 141.302 82.5895ZM140.019 80.8254C140.841 80.7138 141.212 81.5456 140.537 81.8806C139.957 81.8024 140.002 81.3558 140.019 80.8254ZM139.658 61.3644C139.405 62.3525 138.69 62.2353 138.673 61.5151C138.955 61.4704 139.242 61.4258 139.658 61.3644ZM130.942 56.6694C129.484 56.6582 130.886 54.9555 130.942 56.6694V56.6694ZM126.466 47.0561C126.106 47.3185 125.79 47.5473 125.481 47.7706C125.612 47.0896 125.941 46.8514 126.466 47.0561ZM125.881 50.8299C125.695 51.0142 125.503 51.1984 125.317 51.3882C124.805 51.1761 125.621 50.2828 125.881 50.8299ZM123.915 48.2731C124.676 48.7588 124.197 49.7692 123.696 49.6018C123.769 49.1607 123.842 48.7141 123.915 48.2731ZM123.583 100.247C124.304 99.8846 124.957 99.6222 125.638 100.225C124.974 100.415 124.326 100.979 123.583 100.247ZM126.601 97.0039C126.534 96.7359 126.466 96.4624 126.399 96.1944C126.748 95.9655 127.204 97.0765 126.601 97.0039ZM126.156 56.4572C125.03 55.9827 121.675 54.6094 124.563 54.2633C120.582 51.8739 123.274 51.7232 124.861 53.4817C126.398 54.2353 131.432 55.5752 127.356 56.1614C126.849 55.0281 126.624 55.5193 126.156 56.4516V56.4572ZM128.037 90.5336C128.347 90.7904 129.276 90.8239 128.966 91.2985C128.561 91.0696 127.575 91.1031 128.037 90.5336ZM128.144 98.3605C128.442 98.0255 128.532 98.1707 129.039 98.327C128.544 98.6508 128.487 98.7289 128.144 98.3605ZM131.016 89.3892C131.77 89.4059 132.311 89.6516 132.35 90.5057C131.592 90.4425 131.147 90.0703 131.016 89.3892ZM127.778 56.4628C128.803 56.1334 132.333 59.042 130.999 56.7252C136.702 57.0043 132.834 59.8347 136.871 59.8291C137.057 60.1976 137.277 60.6442 137.626 61.3532C134.152 59.7175 130.706 58.8968 127.778 56.4684V56.4628ZM134.354 61.3253C133.898 61.0629 133.707 60.9066 133.966 60.5214C134.529 60.3986 134.394 60.8228 134.354 61.3253ZM134.636 66.9972C134.169 66.7516 133.696 66.5116 133.026 66.1599C133.949 65.5681 134.856 66.1599 134.636 66.9972ZM133.881 62.76C134.482 62.6707 134.901 62.8642 135.137 63.3406C134.703 63.1396 134.416 63.0057 133.881 62.76ZM136.235 62.118C134.349 62.3357 135.756 60.5102 136.235 62.118V62.118ZM136.105 64.1166C136.415 64.312 136.725 64.5074 137.035 64.6972C136.303 65.0768 136.122 64.7084 136.105 64.1166ZM138.172 64.446C137.507 62.9108 136.291 63.6197 136.269 62.118C136.517 61.3979 138.527 62.8773 138.983 63.1787C137.84 63.3518 137.378 62.5479 138.183 64.4404L138.172 64.446ZM139.067 63.1955C140.007 64.1445 140.036 62.9163 139.067 63.1955V63.1955ZM142.873 62.3078C143.2 62.2073 143.532 61.9896 143.543 62.4586C143.29 62.4418 142.907 62.6819 142.873 62.3078ZM126.004 40.971C125.993 40.8984 126.004 40.7644 125.965 40.7477C125.042 40.3625 124.118 39.9829 123.189 39.6088C123.138 39.6591 123.082 39.7037 123.031 39.754C123.426 40.3346 123.82 40.9152 124.242 41.5293C124.878 41.3283 125.441 41.1496 126.004 40.9766V40.971ZM100.397 38.336C99.4772 37.9043 98.719 37.7982 98.1221 38.0178C98.6795 38.6933 99.4002 38.4476 100.397 38.336ZM140.925 87.9768C141.561 88.4569 142.248 88.63 143.11 88.2838C142.417 87.5693 141.663 87.8372 140.925 87.9768ZM87.8746 44.7058C87.4411 44.957 87.2271 45.0854 86.8442 45.3087C87.1145 45.599 87.2947 45.8 87.6156 46.1461C87.7169 45.5934 87.7789 45.2361 87.8746 44.7002V44.7058ZM133.544 93.0235C134.088 93.0868 134.274 92.7779 134.101 92.0968C133.836 92.5322 133.701 92.7611 133.544 93.0235ZM128.369 43.4776C128.026 43.5669 127.812 43.6228 127.457 43.7177C127.733 43.9912 127.896 44.1587 128.178 44.4434C128.257 44.0582 128.302 43.8349 128.369 43.4776ZM89.6595 45.3869C89.3048 45.1915 89.0964 45.0742 88.6516 44.8342C88.843 45.3143 88.9388 45.5488 89.0626 45.8614C89.2766 45.6883 89.4005 45.5878 89.6595 45.3869ZM143.341 86.4304C143.391 86.5253 143.436 86.6146 143.487 86.7095C143.74 86.5588 143.994 86.4081 144.247 86.2573C144.213 86.1959 144.18 86.1345 144.14 86.0787C143.87 86.1959 143.605 86.3132 143.335 86.4304H143.341ZM134.968 51.2598C135.002 51.5557 135.03 51.8571 135.064 52.153C135.413 51.8795 135.486 51.5836 134.968 51.2598ZM135.019 52.1865L135.064 52.2088C135.064 52.1921 135.064 52.1698 135.058 52.153C135.041 52.1642 135.03 52.1754 135.019 52.1865ZM116.219 44.5718C116.252 43.8907 115.712 44.2368 115.442 44.114C115.605 44.4099 115.706 44.8007 116.219 44.5718ZM115.391 44.0973C115.391 44.0973 115.425 44.114 115.442 44.1196C115.43 44.0973 115.419 44.0749 115.402 44.0526L115.385 44.0973H115.391ZM102.232 38.8943C102.002 38.8217 101.771 38.7491 101.545 38.6765C101.523 38.7435 101.5 38.8049 101.484 38.8719C101.709 38.9557 101.928 39.0394 102.154 39.1231C102.182 39.045 102.21 38.9668 102.238 38.8943H102.232ZM112.581 103.435L112.559 103.469C112.598 103.457 112.632 103.452 112.671 103.441C112.638 103.441 112.609 103.441 112.581 103.435ZM113.719 103.195C113.37 103.279 113.026 103.363 112.677 103.446C113.037 103.474 113.392 103.502 113.752 103.536C113.741 103.424 113.73 103.312 113.719 103.201V103.195ZM138.065 52.6834C137.975 52.7169 137.885 52.7448 137.795 52.7783C137.902 52.8174 138.003 52.862 138.11 52.9011C138.093 52.8285 138.082 52.7559 138.065 52.6834ZM96.0726 46.7602C96.0726 46.7602 95.8755 46.7044 95.8699 46.7211C95.8136 46.8495 95.7348 46.9947 95.746 47.1231C95.7517 47.2124 95.8474 47.2961 95.9206 47.3799C95.9544 47.3129 96.0051 47.2515 96.0219 47.1845C96.0557 47.0449 96.0726 46.8998 96.0726 46.7602ZM95.9093 47.4022L95.9487 47.4245C95.9375 47.4134 95.9262 47.4022 95.915 47.3854C95.915 47.3854 95.9093 47.3966 95.9037 47.4022H95.9093ZM133.014 58.0985C132.941 58.1544 132.902 58.266 132.851 58.3497C132.93 58.3609 133.009 58.3665 133.138 58.3832C133.172 58.3051 133.206 58.2158 133.245 58.1264C133.166 58.1153 133.059 58.065 133.02 58.0929L133.014 58.0985ZM125.239 54.788C125.379 54.9332 125.526 55.0727 125.667 55.2179C125.723 55.1565 125.83 55.0448 125.819 55.0392C125.689 54.8941 125.548 54.7601 125.408 54.6205C125.351 54.6764 125.295 54.7322 125.239 54.788Z" fill="#B5E2D3"/>
<path d="M48.1473 37.7667C48.1473 35.8351 47.3872 34.2496 45.3039 33.4959C44.6564 33.2559 43.8175 33.1498 42.8659 33.1498C39.2399 33.1498 33.9303 34.7074 29.9777 36.4268C22.6411 39.648 20.0398 43.2153 20.0398 46.9222C20.0398 54.2745 30.3549 62.0623 34.1443 68.259C39.1272 64.9038 44.3524 61.6827 49.6281 60.1251C49.7351 60.0693 49.8421 60.0469 49.9547 60.0469C50.4446 60.0469 50.8725 60.6666 50.8725 61.2026C50.8725 61.4147 50.7936 61.6324 50.6304 61.7664C45.4334 63.324 39.8817 66.3274 34.955 69.6602C35.7377 70.8438 36.0924 71.9938 36.0924 73.1494C36.0924 79.4857 25.4508 84.9343 20.7943 84.9343H20.631C19.657 84.8785 19.1953 84.4487 19.1953 83.7508C19.1953 83.427 19.3022 83.053 19.4937 82.5952C21.0927 78.8381 30.0002 71.1341 33.2434 68.8787C28.7502 61.4705 18.7617 54.1182 18.7617 46.844C18.7617 42.685 22.0105 38.5203 31.4022 34.4171C35.0001 32.8316 38.8176 31.9216 41.9594 31.9216C43.3389 31.9216 44.6114 32.1114 45.6699 32.4855C48.5414 33.535 49.5155 35.7848 49.5155 38.4142C49.5155 43.9466 45.1857 50.9473 45.1575 50.9752C44.8309 51.5111 44.2623 51.807 43.7217 51.807C43.1249 51.807 42.6125 51.4329 42.5844 50.6235C42.6125 50.5955 48.1361 42.9752 48.1361 37.7667H48.1473ZM20.5072 82.9972C20.4283 83.187 20.372 83.3712 20.372 83.5052C20.372 83.7173 20.479 83.829 20.6986 83.8513C20.9407 83.8792 21.1885 83.9071 21.4306 83.9071C26.1658 83.9071 34.7749 78.9386 34.7749 73.1438C34.7749 72.2059 34.5609 71.2401 34.0429 70.2743C30.7153 72.58 22.1569 79.1842 20.5072 82.9972Z" fill="black"/>
<path d="M40.0514 50.2215C43.2157 50.2215 47.8496 50.0317 53.8855 49.5516C57.4046 41.3898 61.0869 35.1372 62.793 35.1372H62.8493C63.3616 35.327 63.5812 35.7792 63.5812 36.4268C63.5812 39.4861 58.2773 46.7882 56.3291 49.4455C58.7108 49.2836 74.7916 47.86 77.4998 47.86C77.6913 47.86 77.8264 47.86 77.8771 47.8879C77.9841 48.0498 78.0404 48.1838 78.0404 48.3178C78.0404 49.2836 75.7938 50.0093 75.7938 50.0093C75.6868 50.0652 75.5798 50.0875 75.4672 50.0875C75.09 50.0875 74.7916 49.7637 74.7916 49.3897C74.7916 49.2836 74.8197 49.1775 74.8704 49.0659C74.8704 49.0659 62.2018 49.6018 55.9181 50.1154C53.7278 53.1468 46.7967 69.2806 46.7967 76.7669C46.7967 78.9665 47.4217 80.4459 48.9363 80.5799C49.2629 80.6078 49.398 80.8199 49.398 81.0376C49.398 81.3335 49.1559 81.6573 48.8575 81.6573C48.8012 81.6573 48.7505 81.6573 48.6942 81.6294C47.1233 80.9595 46.4758 78.9441 46.4758 76.1249C46.4758 69.7384 49.8315 59.1314 53.5702 50.3052C49.184 50.3331 43.8238 50.5174 39.8712 50.5174C36.7857 50.5174 34.5672 50.3834 34.404 49.9814C34.3758 49.9256 34.3477 49.8754 34.3477 49.8195C34.3477 49.4734 34.9445 49.3339 35.2936 49.3339H35.4569C35.8623 49.3339 36.4872 49.4957 36.4872 50.1098C37.3262 50.188 38.5424 50.2159 40.0626 50.2159L40.0514 50.2215ZM62.1117 37.3423C62.2749 36.8567 62.3538 36.5664 62.3538 36.4547C62.3538 36.4268 62.3256 36.3989 62.3256 36.3989C61.9202 36.3989 57.1005 46.1406 57.0217 46.3862C58.373 44.7505 61.436 39.2181 62.1117 37.3423Z" fill="black"/>
<path d="M58.6995 58.4894C58.6432 58.3554 58.6432 58.2494 58.6432 58.1433C58.6432 57.9312 58.722 57.7693 58.8853 57.6353C59.0204 57.5292 59.1555 57.4734 59.3188 57.4734C59.3976 57.4734 59.4821 57.5013 59.5891 57.5292C60.0508 57.719 60.3717 58.1489 60.5632 58.869C61.1881 59.539 62.0778 60.1028 63.8908 60.2368C64.8367 60.315 65.7038 60.3429 66.4639 60.3429C69.3073 60.3429 70.7938 59.913 70.7938 59.8851H70.9289C71.2273 59.8851 71.3906 60.1251 71.3906 60.3931C71.3906 60.6611 71.2555 60.929 71.0134 61.0128C71.0134 61.0128 69.9323 61.2249 67.7083 61.2249C66.7342 61.2249 65.5405 61.1691 64.1329 61.063C62.6465 60.929 61.6949 60.689 60.856 60.3094C60.8278 62.615 59.9607 66.2381 57.9337 67.6617C57.5565 67.9018 57.0948 68.0636 56.6612 68.0636C56.4473 68.0636 56.2277 68.0357 56.0644 67.9576C55.2818 67.6338 55.0059 66.8578 55.0059 65.9423C55.0059 64.7085 55.4957 63.257 55.8166 62.5313C56.2502 61.5655 57.7141 59.2319 58.7389 58.5843C58.7107 58.5564 58.6826 58.5062 58.6826 58.4783L58.6995 58.4894ZM56.7795 63.1063C56.6162 63.4803 56.132 64.9597 56.132 65.9757C56.132 66.4335 56.2108 66.7796 56.5092 66.8857C56.5655 66.9136 56.6162 66.9136 56.6725 66.9136C57.945 66.9136 59.5159 61.1412 59.5159 59.6674V59.5055C59.4371 59.4496 59.3808 59.3994 59.3245 59.3436C58.3222 60.1196 57.2693 61.973 56.7795 63.1007V63.1063Z" fill="black"/>
<path d="M71.5308 61.2806C72.5894 59.0531 74.1321 57.6296 75.4271 57.6296C75.9958 57.6296 76.5082 57.8975 76.9417 58.4614C77.944 60.6609 81.9473 61.0629 84.954 61.0629C86.2827 61.0629 87.4201 60.9847 87.9888 60.9568C88.3154 60.9289 88.5575 60.6889 88.6138 60.6889C88.7208 60.6609 88.8277 60.633 88.884 60.633C89.0473 60.633 89.098 60.7112 89.098 60.7949C89.098 60.9847 88.9066 61.2527 88.6926 61.3029C88.5575 61.4369 86.5023 61.7607 84.0925 61.7607C81.1421 61.7607 77.6512 61.275 76.2942 59.3993C76.1309 59.1871 75.9451 59.0755 75.7537 59.0755C73.8337 59.0755 70.2865 67.4773 70.2583 67.5053V67.5611C70.2583 67.8849 69.8811 68.0189 69.4757 68.0189C68.9858 68.0189 68.4453 67.829 68.4453 67.5611C68.4453 67.5053 68.4735 67.4829 68.4735 67.455L70.7763 57.8975C70.9678 57.3895 71.4013 57.1997 71.8349 57.1997C72.3473 57.1997 72.8653 57.4956 72.8653 57.9757V58.0315L71.5365 61.2806H71.5308Z" fill="black"/>
<path d="M89.4802 64.4238C89.4802 64.9876 89.6435 65.4454 90.0207 65.6854C90.1558 65.7915 90.3698 65.8194 90.6457 65.8194C93.8157 65.8194 105.809 60.6946 105.809 60.6946C106.023 60.5327 106.214 60.4824 106.405 60.4824C106.895 60.4824 107.244 60.8565 107.244 61.1244C107.244 61.1803 107.244 61.2305 107.188 61.2863C107.16 61.2863 94.6828 66.6792 90.1615 66.6792C89.4858 66.6792 88.9678 66.5731 88.7257 66.2772C87.9656 65.7915 87.6953 64.8815 87.6953 63.8599C87.6953 61.9786 88.6131 59.7009 89.1029 58.869C89.3169 58.4113 89.6998 58.227 90.1052 58.227C90.6738 58.227 91.2425 58.629 91.2425 59.1928C91.2425 59.271 91.2425 59.3547 91.2144 59.4329C91.2144 59.4329 89.4802 62.548 89.4802 64.4238ZM92.7571 54.1182C92.7571 54.308 92.729 54.4923 92.6502 54.6821C92.4587 55.2459 92.0026 55.6199 91.5691 55.6199C91.4903 55.6199 91.4058 55.6199 91.327 55.592C90.9779 55.4581 90.7583 55.084 90.7583 54.6262C90.7583 54.4364 90.7865 54.2522 90.8653 54.0624C91.0792 53.4985 91.5409 53.1245 91.9745 53.1245C92.0533 53.1245 92.1096 53.1245 92.1885 53.1524C92.5375 53.2864 92.7571 53.6604 92.7571 54.1182Z" fill="black"/>
<path d="M110.787 59.165C110.787 61.4204 107.133 62.8663 106.373 63.1622C106.373 63.3241 106.344 63.5083 106.344 63.6981C106.344 64.3401 106.451 65.0938 106.778 65.5794C107.127 66.1154 107.724 66.3554 108.484 66.3554C112.217 66.3554 119.694 60.7728 119.717 60.7449C119.824 60.6667 119.931 60.6388 120.044 60.6388C120.393 60.6388 120.691 60.9626 120.691 61.2808C120.691 61.4148 120.612 61.5488 120.477 61.6549C120.421 61.6828 113.141 66.8914 108.698 66.8914C107.533 66.8914 106.558 66.5452 105.962 65.6297C105.449 64.876 105.258 64.0721 105.258 63.2961C105.258 61.7944 106.018 60.3708 106.908 59.3213C107.397 58.7575 107.938 58.3276 108.422 58.0596C108.799 57.8475 109.154 57.7358 109.503 57.7358C109.695 57.7358 109.88 57.7638 110.044 57.8419C110.421 58.0038 110.691 58.3499 110.748 58.8635C110.748 58.9696 110.776 59.0533 110.776 59.1594L110.787 59.165ZM109.132 59.165C109.132 59.1092 109.103 59.0868 109.053 59.0868C108.512 59.165 107.994 60.1587 106.75 61.7721C108.484 60.2983 109.132 59.4106 109.132 59.1706V59.165Z" fill="black"/>
<path d="M124.48 56.7476C124.48 56.5857 124.424 56.4796 124.266 56.4796C124.131 56.4796 123.939 56.5354 123.697 56.6694C123.157 56.9374 122.211 57.7692 121.372 58.869C120.803 59.6226 120.589 60.3205 120.589 60.9904C120.589 62.7377 122.188 64.3176 123.483 66.4111C125.972 64.6414 128.112 63.3239 130.876 61.9841C132.447 61.2081 134.502 60.2144 136.372 59.5389C136.997 59.5947 137.318 60.1027 137.318 60.5884C137.318 60.8843 137.182 61.1802 136.912 61.3421C135.043 61.5542 133.393 62.28 131.85 63.0336C129.063 64.3735 126.462 65.5291 123.945 67.3546C124.435 68.2422 124.649 69.2862 124.649 70.3357C124.649 74.3608 121.592 78.9274 117.96 78.9274C117.611 78.9274 117.256 78.8716 116.901 78.7934C115.82 78.5534 115.387 77.5038 115.387 76.432C115.387 76.03 115.466 75.628 115.578 75.2484C116.147 73.4508 118.422 70.3357 122.994 66.9247C121.963 65.2053 119.176 63.0336 119.176 60.5103C119.176 59.7566 119.418 58.9806 120.043 58.1488C121.045 56.809 122.616 55.9995 123.213 55.7036C123.838 55.4357 124.322 55.3296 124.7 55.3296C125.432 55.3296 125.758 55.7315 125.837 56.3791C125.865 56.5131 125.865 56.6471 125.865 56.809C125.865 58.4447 124.97 60.5103 124.97 60.5382C124.756 60.8341 124.401 60.9401 124.052 60.9401C123.483 60.9401 122.887 60.594 122.887 60.0023C122.887 59.9241 122.887 59.8404 122.915 59.7622C122.915 59.7343 124.486 57.5068 124.486 56.7532L124.48 56.7476ZM116.603 75.5611C116.524 75.8011 116.468 76.097 116.468 76.365C116.468 76.7948 116.631 77.1968 117.143 77.3308C117.386 77.4089 117.633 77.4368 117.904 77.4368C120.826 77.4368 123.754 73.0377 123.754 69.6546C123.754 68.9568 123.647 68.3148 123.376 67.751C119.289 70.8661 117.121 73.9756 116.609 75.5611H116.603Z" fill="black"/>
<path d="M56.0733 85.1351C56.3548 85.4812 56.4956 85.9167 56.4956 86.4415C56.4956 86.7652 56.4393 87.0555 56.3323 87.3235C56.2253 87.5915 56.062 87.8204 55.8537 88.0158C55.6397 88.2112 55.3695 88.3675 55.0373 88.4735C54.7051 88.5852 54.3222 88.6354 53.8943 88.6354H50.5723V80.6802H53.4663C54.3222 80.6802 54.9697 80.8477 55.4145 81.177C55.8593 81.5064 56.0845 81.9921 56.0845 82.6229C56.0845 82.8686 56.0451 83.103 55.9663 83.3263C55.8875 83.5441 55.758 83.7562 55.5722 83.9516C55.3863 84.147 55.1555 84.2977 54.8796 84.4038V84.4261C55.3976 84.5545 55.7917 84.789 56.0733 85.1407V85.1351ZM52.1319 83.9404H53.2693C53.4889 83.9404 53.6916 83.9069 53.8661 83.8455C54.0407 83.7841 54.187 83.6781 54.3053 83.5329C54.4235 83.3878 54.4798 83.2091 54.4798 82.997C54.4798 82.8072 54.4348 82.6453 54.3447 82.5113C54.2546 82.3773 54.1139 82.2712 53.9168 82.1931C53.7197 82.1149 53.4663 82.0758 53.1679 82.0758H52.1375V83.9404H52.1319ZM54.1589 87.1449C54.3729 87.0723 54.5361 86.9551 54.66 86.8043C54.7839 86.6536 54.8402 86.4638 54.8402 86.2461C54.8402 85.9279 54.7219 85.6711 54.4798 85.4868C54.2377 85.3026 53.8886 85.2077 53.4269 85.2077H52.1319V87.2509H53.41C53.6972 87.2509 53.9449 87.2119 54.1589 87.1393V87.1449Z" fill="black"/>
<path d="M63.8318 80.6802L61.1629 85.1407V88.6354H59.5582V85.1407L56.9062 80.6802H58.7249L60.3577 83.5831H60.3803L61.9962 80.6802H63.8318Z" fill="black"/>
<path d="M68.6514 88.4177C68.1503 88.2111 67.6942 87.8985 67.2832 87.4742L68.2348 86.3074C68.3812 86.4749 68.5388 86.6201 68.7134 86.7485C68.8879 86.8769 69.0568 86.9829 69.2257 87.0611C69.3946 87.1392 69.5692 87.2007 69.7381 87.2397C69.907 87.2788 70.0703 87.3011 70.2336 87.3011C70.4813 87.3011 70.6953 87.2676 70.8698 87.1895C71.0444 87.1169 71.1739 87.0164 71.2583 86.8936C71.3428 86.7708 71.3822 86.6256 71.3822 86.4582C71.3822 86.3409 71.3653 86.2349 71.3259 86.1455C71.2865 86.0562 71.2358 85.9725 71.1739 85.9055C71.1119 85.8385 71.0162 85.7659 70.8924 85.6989C70.7685 85.6319 70.639 85.5705 70.5095 85.5203C70.38 85.47 70.2054 85.403 69.9858 85.3305C69.7888 85.2635 69.6199 85.1965 69.4678 85.1407C69.3158 85.0848 69.1525 85.0067 68.978 84.9174C68.8034 84.828 68.6514 84.7387 68.5219 84.6494C68.3924 84.5601 68.2629 84.454 68.139 84.3256C68.0095 84.2028 67.9082 84.0688 67.8294 83.9292C67.7505 83.7897 67.6886 83.6278 67.6379 83.4435C67.5872 83.2593 67.5647 83.0639 67.5647 82.8574C67.5647 82.4387 67.6773 82.0535 67.9082 81.7073C68.1334 81.3612 68.4487 81.0877 68.8429 80.8923C69.237 80.6913 69.6705 80.5908 70.1435 80.5852C71.1119 80.5741 72.0128 80.909 72.8461 81.5845L71.9284 82.7736C71.2865 82.2544 70.7009 81.992 70.1829 81.992C69.9014 81.992 69.6705 82.0646 69.4904 82.2042C69.3102 82.3438 69.2201 82.5392 69.2145 82.7904C69.2145 82.8909 69.2314 82.9802 69.2708 83.0583C69.3102 83.1365 69.3552 83.2091 69.4172 83.2761C69.4791 83.3375 69.5748 83.4045 69.6987 83.4715C69.8226 83.5384 69.9464 83.5998 70.0703 83.6501C70.1942 83.7003 70.3575 83.7673 70.5714 83.8511C71.2414 84.1079 71.6863 84.2977 71.9002 84.4149C72.4013 84.6829 72.7335 85.0178 72.8968 85.4142C72.9982 85.6598 73.0488 85.9501 73.0488 86.2795C73.0488 86.6089 72.9925 86.9215 72.8799 87.2006C72.7673 87.4798 72.6153 87.7087 72.4295 87.8929C72.2437 88.0771 72.0241 88.2334 71.7763 88.3618C71.5286 88.4902 71.2752 88.5851 71.0106 88.641C70.746 88.6968 70.4813 88.7247 70.2111 88.7247C69.6762 88.7247 69.1582 88.6186 68.657 88.4121L68.6514 88.4177Z" fill="black"/>
<path d="M74.3884 80.6801H77.0404C77.6654 80.6801 78.2397 80.7806 78.7577 80.976C79.2757 81.1714 79.7149 81.445 80.0753 81.7911C80.4356 82.1372 80.7115 82.5615 80.9086 83.0528C81.1056 83.544 81.2014 84.0856 81.2014 84.6661C81.2014 85.2467 81.1056 85.7827 80.9198 86.2739C80.7284 86.7652 80.4581 87.1783 80.109 87.53C79.7599 87.8817 79.3208 88.1497 78.8028 88.3395C78.2848 88.5349 77.7048 88.6298 77.0686 88.6298H74.3828V80.6746L74.3884 80.6801ZM76.9785 87.2342C77.3613 87.2342 77.7161 87.1672 78.037 87.0388C78.358 86.9048 78.6338 86.7261 78.8534 86.5028C79.0787 86.2739 79.2476 86.006 79.3714 85.6878C79.4953 85.3696 79.5572 85.0346 79.5572 84.6773C79.5572 84.186 79.4503 83.745 79.2419 83.3486C79.028 82.9523 78.7352 82.6452 78.3579 82.4275C77.9807 82.2098 77.5528 82.0981 77.0798 82.0981H75.9594V87.2397H76.9785V87.2342Z" fill="black"/>
<path d="M85.6113 80.6802H87.1991V87.2342H90.7689V88.641H85.6113V80.6858V80.6802Z" fill="black"/>
<path d="M92.0527 80.6802H93.6518V88.6354H92.0527V80.6802Z" fill="black"/>
<path d="M103.601 80.6802V88.6354H102.024V83.6892H102.007L100.048 87.1225H99.0177L97.0583 83.6892H97.0414V88.6354H95.4648V80.6802H97.0639L99.5301 85.2077H99.5526L102.002 80.6802H103.601Z" fill="black"/>
<path d="M105.414 80.6802H107.013V88.6354H105.414V80.6802Z" fill="black"/>
<path d="M110.486 82.0926H108.273V80.6802H114.292V82.0926H112.068V88.641H110.486V82.0926Z" fill="black"/>
<path d="M115.492 80.6802H120.622V82.0926H117.057V84.0018H119.912V85.3919H117.057V87.2342H120.858V88.641H115.492V80.6858V80.6802Z" fill="black"/>
<path d="M122.265 80.6801H124.917C125.542 80.6801 126.117 80.7806 126.635 80.976C127.153 81.1714 127.592 81.445 127.952 81.7911C128.313 82.1372 128.588 82.5615 128.786 83.0528C128.983 83.544 129.078 84.0856 129.078 84.6661C129.078 85.2467 128.983 85.7827 128.797 86.2739C128.605 86.7652 128.335 87.1783 127.986 87.53C127.637 87.8817 127.198 88.1497 126.68 88.3395C126.162 88.5349 125.582 88.6298 124.946 88.6298H122.26V80.6746L122.265 80.6801ZM124.855 87.2342C125.238 87.2342 125.593 87.1672 125.914 87.0388C126.235 86.9048 126.511 86.7261 126.73 86.5028C126.956 86.2739 127.125 86.006 127.248 85.6878C127.372 85.3696 127.434 85.0346 127.434 84.6773C127.434 84.186 127.327 83.745 127.119 83.3486C126.905 82.9523 126.612 82.6452 126.235 82.4275C125.858 82.2098 125.43 82.0981 124.957 82.0981H123.836V87.2397H124.855V87.2342Z" fill="black"/>
</g>
<defs>
<clipPath id="clip0_277_81">
<rect width="149" height="134" fill="white"/>
</clipPath>
</defs>
</svg>
